<svg xmlns="http://www.w3.org/2000/svg" viewBox="0 0 896.2 59.61"><defs><style>.cls-1{fill:#fff;}</style></defs><g id="Layer_2" data-name="Layer 2"><g id="Layer_1-2" data-name="Layer 1"><path class="cls-1" d="M33.35,43.66A6.73,6.73,0,0,0,31,38.26q-2.31-2-8.36-3.8-10.54-3-15.74-7T1.75,16.16a13.91,13.91,0,0,1,6-11.7Q13.73,0,23.32,0,33.07,0,39,5A16,16,0,0,1,45,17.83H33.35a8.53,8.53,0,0,0-2.63-6.55Q28.1,8.84,23.16,8.83c-3.18,0-5.61.69-7.28,2.05a6.56,6.56,0,0,0-2.51,5.32A5.63,5.63,0,0,0,16,21.05q2.66,1.83,9.47,4,9.75,2.74,14.6,7T45,43.58A13.81,13.81,0,0,1,39.2,55.4q-5.78,4.22-15.6,4.21A28.54,28.54,0,0,1,7,54.8Q0,50,0,40.83H11.62q0,5.3,3.1,7.64t8.88,2.35q4.86,0,7.3-1.93A6.32,6.32,0,0,0,33.35,43.66Z"/><path class="cls-1" d="M88.82.84l14.85,42.9h.12L118.71.84h15.2V58.78H122.29V41.51l1.16-26-.12,0-15.68,43.3h-7.8L84.25,15.64l-.12,0,1.15,25.83V58.78H73.66V.84Z"/><path class="cls-1" d="M196.11,46.12H175.78l-3.94,12.66H160.1L180,.84h11.9l19.85,57.94H200.05Zm-17.55-8.95h14.77L186,13.69h-.12Z"/><path class="cls-1" d="M249.56,35.62V58.78H237.94V.84H260.7q10,0,15.11,4.29t5.07,12.62a12.17,12.17,0,0,1-2.53,8,17.47,17.47,0,0,1-7.42,5v.12q5.13,1.59,7.26,5a16.49,16.49,0,0,1,2.13,8.81V49a19.69,19.69,0,0,0,.64,4.93,6.63,6.63,0,0,0,2.27,3.78v1.12h-11.9a6.61,6.61,0,0,1-2.11-4.28,35.28,35.28,0,0,1-.48-5.63v-4.1q0-4.46-2.17-6.81c-1.44-1.56-3.63-2.34-6.54-2.34Zm0-9h10c3.31,0,5.76-.67,7.34-2s2.37-3.41,2.37-6.17a8.73,8.73,0,0,0-2.23-6.38q-2.24-2.29-7-2.29H249.56Z"/><path class="cls-1" d="M356.05,9.79h-18.3v49H326.13v-49H307.9V.84h48.15Z"/><path class="cls-1" d="M451.08,34.7h-24V58.78H415.5V.84h39.64v9h-28v16h24Z"/><path class="cls-1" d="M513.6,46.12H493.26l-3.94,12.66H477.58L497.52.84h11.9l19.86,57.94H517.54Zm-17.55-8.95h14.76l-7.32-23.48h-.12Z"/><path class="cls-1" d="M599.76,39.64q-.72,9.59-6.55,14.78T576.8,59.61q-10.59,0-16.7-6.56T554,35.58V24.08q0-10.78,6.21-17.43T576.8,0q10.74,0,16.39,5.21t6.61,15.05H588.22q-.53-5.7-3.07-8.5T576.8,9a9.56,9.56,0,0,0-8.28,4.16q-3,4.16-2.95,10.89V35.58q0,6.89,2.85,11a9.53,9.53,0,0,0,8.38,4.12c3.68,0,6.42-.9,8.19-2.71s2.83-4.59,3.15-8.35Z"/><path class="cls-1" d="M672.62,9.79h-18.3v49H642.7v-49H624.47V.84h48.15Z"/><path class="cls-1" d="M747,35q0,10.78-6.64,17.69t-17.63,6.9q-10.9,0-17.49-6.9T698.69,35V24.59q0-10.74,6.57-17.67T722.73,0q11,0,17.65,6.92T747,24.59ZM735.42,24.51q0-6.8-3.34-11.12a11.16,11.16,0,0,0-9.35-4.32,10.87,10.87,0,0,0-9.24,4.3q-3.21,4.3-3.22,11.14V35q0,6.93,3.24,11.24a10.9,10.9,0,0,0,9.26,4.32,11.08,11.08,0,0,0,9.35-4.32q3.3-4.32,3.3-11.24Z"/><path class="cls-1" d="M788.35,35.62V58.78H776.73V.84h22.76q10,0,15.11,4.29t5.07,12.62a12.17,12.17,0,0,1-2.53,8,17.47,17.47,0,0,1-7.42,5v.12q5.13,1.59,7.26,5a16.49,16.49,0,0,1,2.13,8.81V49a20.16,20.16,0,0,0,.64,4.93A6.63,6.63,0,0,0,822,57.66v1.12h-11.9A6.61,6.61,0,0,1,808,54.5a35.28,35.28,0,0,1-.48-5.63v-4.1q0-4.46-2.17-6.81t-6.54-2.34Zm0-9h10c3.32,0,5.76-.67,7.34-2s2.37-3.41,2.37-6.17a8.73,8.73,0,0,0-2.23-6.38q-2.24-2.29-7-2.29H788.35Z"/><path class="cls-1" d="M870.69,27.78,883.46.84H896.2L876.34,38.4V58.78H864.76v-21L845.18.84h12.73Z"/></g></g></svg>