<?xml version="1.0" encoding="utf-8"?>
<!-- Generator: Adobe Illustrator 25.0.1, SVG Export Plug-In . SVG Version: 6.00 Build 0)  -->
<svg version="1.1" id="PRINT" xmlns="http://www.w3.org/2000/svg" xmlns:xlink="http://www.w3.org/1999/xlink" x="0px" y="0px"
	 viewBox="0 0 841.9 595.3" style="enable-background:new 0 0 841.9 595.3;" xml:space="preserve">
<style type="text/css">
	.st0{fill:#FFFFFF;}
	.st1{clip-path:url(#SVGID_2_);}
	.st2{opacity:0.5;}
	.st3{fill:none;stroke:#AFC6D3;stroke-width:0.7174;stroke-miterlimit:10;}
	.st4{fill:#F0EFEF;}
	.st5{fill:#0B324C;}
	.st6{fill:#F17422;}
	.st7{fill:#C6C6C5;}
</style>
<g>
	<g>
		<rect class="st0" width="841.9" height="595.3"/>
		<g>
			<defs>
				<rect id="SVGID_1_" width="841.9" height="595.3"/>
			</defs>
			<clipPath id="SVGID_2_">
				<use xlink:href="#SVGID_1_"  style="overflow:visible;"/>
			</clipPath>
			<g class="st1">
				<g>
					<g class="st2">
						<line class="st3" x1="57.2" y1="-12" x2="-445.9" y2="583.3"/>
						<line class="st3" x1="66.7" y1="-12" x2="-436.3" y2="583.3"/>
						<line class="st3" x1="76.3" y1="-12" x2="-426.8" y2="583.3"/>
						<line class="st3" x1="85.8" y1="-12" x2="-417.2" y2="583.3"/>
						<line class="st3" x1="95.4" y1="-12" x2="-407.7" y2="583.3"/>
						<line class="st3" x1="19.3" y1="-12" x2="-483.8" y2="583.3"/>
						<line class="st3" x1="28.8" y1="-12" x2="-474.2" y2="583.3"/>
						<line class="st3" x1="38.4" y1="-12" x2="-464.7" y2="583.3"/>
						<line class="st3" x1="47.9" y1="-12" x2="-455.1" y2="583.3"/>
						<line class="st3" x1="104.9" y1="-12" x2="-398.1" y2="583.3"/>
						<line class="st3" x1="114.5" y1="-12" x2="-388.6" y2="583.3"/>
						<line class="st3" x1="124" y1="-12" x2="-379" y2="583.3"/>
						<line class="st3" x1="133.6" y1="-12" x2="-369.5" y2="583.3"/>
						<line class="st3" x1="143.1" y1="-12" x2="-359.9" y2="583.3"/>
						<line class="st3" x1="152.7" y1="-12" x2="-350.4" y2="583.3"/>
						<line class="st3" x1="162.2" y1="-12" x2="-340.8" y2="583.3"/>
						<line class="st3" x1="171.8" y1="-12" x2="-331.3" y2="583.3"/>
						<line class="st3" x1="181.3" y1="-12" x2="-321.7" y2="583.3"/>
						<line class="st3" x1="190.9" y1="-12" x2="-312.2" y2="583.3"/>
						<line class="st3" x1="200.4" y1="-12" x2="-302.6" y2="583.3"/>
						<line class="st3" x1="210" y1="-12" x2="-293.1" y2="583.3"/>
						<line class="st3" x1="219.5" y1="-12" x2="-283.6" y2="583.3"/>
						<line class="st3" x1="229.1" y1="-12" x2="-274" y2="583.3"/>
						<line class="st3" x1="238.6" y1="-12" x2="-264.5" y2="583.3"/>
						<line class="st3" x1="248.2" y1="-12" x2="-254.9" y2="583.3"/>
						<line class="st3" x1="257.7" y1="-12" x2="-245.4" y2="583.3"/>
						<line class="st3" x1="267.3" y1="-12" x2="-235.8" y2="583.3"/>
						<line class="st3" x1="276.8" y1="-12" x2="-226.3" y2="583.3"/>
						<line class="st3" x1="286.4" y1="-12" x2="-216.7" y2="583.3"/>
						<line class="st3" x1="295.9" y1="-12" x2="-207.2" y2="583.3"/>
						<line class="st3" x1="305.5" y1="-12" x2="-197.6" y2="583.3"/>
						<line class="st3" x1="315" y1="-12" x2="-188.1" y2="583.3"/>
						<line class="st3" x1="324.5" y1="-12" x2="-178.5" y2="583.3"/>
						<line class="st3" x1="334.1" y1="-12" x2="-169" y2="583.3"/>
						<line class="st3" x1="343.6" y1="-12" x2="-159.4" y2="583.3"/>
						<line class="st3" x1="353.2" y1="-12" x2="-149.9" y2="583.3"/>
						<line class="st3" x1="362.7" y1="-12" x2="-140.3" y2="583.3"/>
						<line class="st3" x1="372.3" y1="-12" x2="-130.8" y2="583.3"/>
						<line class="st3" x1="381.8" y1="-12" x2="-121.2" y2="583.3"/>
						<line class="st3" x1="391.4" y1="-12" x2="-111.7" y2="583.3"/>
						<line class="st3" x1="400.9" y1="-12" x2="-102.1" y2="583.3"/>
						<line class="st3" x1="410.5" y1="-12" x2="-92.6" y2="583.3"/>
						<line class="st3" x1="420" y1="-12" x2="-83" y2="583.3"/>
						<line class="st3" x1="429.6" y1="-12" x2="-73.5" y2="583.3"/>
					</g>
				</g>
				<g>
					<g>
						<path class="st4" d="M868,268.8l-57.8-57l57.8-57l0-45.4L764.2,211.8l103.7,102.4L868,268.8z"/>
						<path class="st5" d="M490.7-43.3l57.8,57l-57.8,57l0,45.4L594.4,13.7L490.7-88.7L490.7-43.3z"/>
						<rect y="390.4" class="st5" width="323" height="93.1"/>
						<rect x="674.5" class="st6" width="167.4" height="47.9"/>
						<polygon class="st4" points="41.9,-1.4 317,-1.4 317,312.3 135.5,500.5 41.9,500.5 						"/>
					</g>
					<g>
						<g>
							<path class="st5" d="M733.5,66.5c0,1.5-1.2,2.7-2.7,2.7c-1.5,0-2.7-1.2-2.7-2.7c0-1.5,1.2-2.7,2.7-2.7
								C732.3,63.9,733.5,65,733.5,66.5z"/>
							<path class="st5" d="M757.8,66.5c0,1.5-1.2,2.7-2.7,2.7c-1.5,0-2.7-1.2-2.7-2.7c0-1.5,1.2-2.7,2.7-2.7
								C756.6,63.9,757.8,65,757.8,66.5z"/>
							<path class="st5" d="M782,66.5c0,1.5-1.2,2.7-2.7,2.7c-1.5,0-2.7-1.2-2.7-2.7c0-1.5,1.2-2.7,2.7-2.7
								C780.8,63.9,782,65,782,66.5z"/>
							<path class="st5" d="M806.2,66.5c0,1.5-1.2,2.7-2.7,2.7c-1.5,0-2.7-1.2-2.7-2.7c0-1.5,1.2-2.7,2.7-2.7
								C805,63.9,806.2,65,806.2,66.5z"/>
						</g>
						<g>
							<path class="st5" d="M757.8,87.8c0,1.5-1.2,2.7-2.7,2.7c-1.5,0-2.7-1.2-2.7-2.7c0-1.5,1.2-2.7,2.7-2.7
								C756.6,85.1,757.8,86.3,757.8,87.8z"/>
							<path class="st5" d="M782,87.8c0,1.5-1.2,2.7-2.7,2.7c-1.5,0-2.7-1.2-2.7-2.7c0-1.5,1.2-2.7,2.7-2.7
								C780.8,85.1,782,86.3,782,87.8z"/>
							<path class="st5" d="M806.2,87.8c0,1.5-1.2,2.7-2.7,2.7c-1.5,0-2.7-1.2-2.7-2.7c0-1.5,1.2-2.7,2.7-2.7
								C805,85.1,806.2,86.3,806.2,87.8z"/>
						</g>
					</g>
				</g>
			</g>
		</g>
	</g>
</g>
<rect class="st7" width="841.9" height="5.7"/>
<rect y="589.6" class="st7" width="841.9" height="5.7"/>
<rect x="836.2" class="st7" width="5.7" height="595.3"/>
<image style="overflow:visible;" width="2560" height="2887" xlink:href="5C53B083.png"  transform="matrix(3.543052e-02 0 0 3.543052e-02 72.2663 23.2646)">
</image>
<g>
	
		<image style="overflow:visible;" width="295" height="100" xlink:href="5C53B081.jpg"  transform="matrix(0.6039 0 0 0.6039 570.2329 459.6098)">
	</image>
	<rect x="670.1" y="511.1" class="st0" width="11.9" height="8.9"/>
	<rect x="728.8" y="511.1" class="st0" width="19.5" height="8.9"/>
</g>
<rect class="st7" width="5.7" height="595.3"/>
<g>
	<path d="M583.1,534.4c0,0.3-0.1,0.6-0.3,0.8s-0.5,0.4-0.9,0.4c-0.3,0-0.6-0.1-0.8-0.4c-0.2-0.2-0.4-0.5-0.4-0.8
		c0-0.3,0.1-0.6,0.4-0.8c0.2-0.2,0.5-0.4,0.8-0.4c0.2,0,0.4,0,0.5,0.1v-1.9c0-0.5-1.2-0.9-3.5-1.3c0.1-1.3,0.7-1.9,1.7-1.9
		c0.3,0,0.6,0.1,1.1,0.2c0.5,0.1,0.8,0.2,1,0.2c0.1,0,0.2-0.1,0.3-0.4l0.6,0.1c-0.2,0.6-0.5,0.9-0.9,0.9c-0.3,0-0.6-0.1-1.1-0.2
		c-0.5-0.1-0.8-0.2-1.1-0.2c-0.2,0-0.4,0.1-0.6,0.3c-0.2,0.2-0.3,0.4-0.3,0.6c0.8,0.1,1.5,0.3,2.3,0.6c0.7,0.3,1.1,0.6,1.1,1.1
		V534.4z M582.6,534.3c0-0.2-0.1-0.3-0.2-0.4s-0.3-0.2-0.4-0.2s-0.3,0.1-0.4,0.2s-0.2,0.3-0.2,0.4c0,0.2,0.1,0.3,0.2,0.4
		c0.1,0.1,0.3,0.2,0.4,0.2s0.3-0.1,0.4-0.2C582.5,534.7,582.6,534.5,582.6,534.3z"/>
	<path d="M590.3,533.9c0,1.1-0.8,1.7-2.4,1.7s-2.4-0.6-2.4-1.7v-2.2c0-0.3,0.1-0.6,0.4-0.8c0.2-0.2,0.5-0.4,0.8-0.4
		c0.3,0,0.6,0.1,0.8,0.4c0.2,0.2,0.4,0.5,0.4,0.8c0,0.3-0.1,0.6-0.3,0.8c-0.2,0.2-0.5,0.4-0.9,0.4c-0.2,0-0.4,0-0.5-0.1v1
		c0,0.8,0.6,1.2,1.8,1.2c1.2,0,1.7-0.4,1.7-1.2v-3.3c0-0.5-0.2-0.9-0.6-1.2c-0.4-0.3-0.9-0.4-1.4-0.4c-0.5,0-0.9,0.1-1.3,0.3
		c-0.4,0.3-0.7,0.6-0.8,1h-0.6c0.1-0.6,0.4-1,0.9-1.4c0.5-0.3,1.1-0.5,1.9-0.5c0.7,0,1.3,0.2,1.8,0.5c0.6,0.4,0.9,0.9,0.9,1.6V533.9
		z M587.3,531.6c0-0.2-0.1-0.3-0.2-0.4c-0.1-0.1-0.3-0.2-0.4-0.2s-0.3,0.1-0.4,0.2s-0.2,0.3-0.2,0.4s0.1,0.3,0.2,0.4
		s0.3,0.2,0.4,0.2s0.3-0.1,0.4-0.2C587.3,532,587.3,531.8,587.3,531.6z"/>
	<path d="M595.6,535.4H595l-3.3-3.7l0.4-0.4l3,3.2v-4c-0.2,0.1-0.4,0.1-0.6,0.1c-0.3,0-0.6-0.1-0.8-0.4c-0.2-0.2-0.4-0.5-0.4-0.8
		c0-0.3,0.1-0.6,0.3-0.9s0.5-0.3,0.8-0.3c0.4,0,0.7,0.1,0.9,0.4c0.2,0.2,0.3,0.5,0.3,0.8V535.4z M595,529.4c0-0.2-0.1-0.3-0.2-0.4
		s-0.3-0.2-0.4-0.2s-0.3,0.1-0.4,0.2s-0.2,0.3-0.2,0.4s0.1,0.3,0.2,0.4c0.1,0.1,0.3,0.2,0.4,0.2s0.3-0.1,0.4-0.2
		C595,529.7,595,529.5,595,529.4z"/>
	<path d="M602.7,535.4H602v-4.8c0-0.5-0.2-1-0.6-1.3c-0.1,0.1-0.4,0.3-0.9,0.7c0.4,0.2,0.6,0.5,0.6,1c0,0.3-0.1,0.5-0.3,0.7
		s-0.4,0.3-0.7,0.3c-0.4,0-0.6-0.1-0.8-0.4c-0.2,0.3-0.3,0.6-0.5,1.1c-0.2,0.6-0.3,1.1-0.3,1.5v1.2h-0.6v-1.7c0-0.3-0.1-0.8-0.3-1.5
		s-0.3-1.1-0.3-1.5c0-0.8,0.3-1.4,0.8-1.9c0.5-0.5,1.2-0.7,2-0.7c0.5,0,1,0.1,1.4,0.3c0.4-0.4,0.7-0.7,0.7-0.8h0.8
		c0,0.3-0.4,0.7-1,1.2c0.5,0.4,0.7,0.9,0.7,1.7V535.4z M600.9,529c-0.3-0.1-0.6-0.2-0.9-0.2c-0.6,0-1,0.2-1.5,0.6
		c-0.4,0.4-0.6,0.8-0.6,1.4c0,0.3,0,0.6,0.1,0.9c0.1,0.5,0.2,0.8,0.2,0.9c0.2-1.2,0.6-2.1,1.2-2.5L600.9,529z M600.6,531
		c0-0.2-0.1-0.3-0.2-0.4s-0.2-0.2-0.4-0.2c-0.2,0-0.3,0.1-0.4,0.2s-0.2,0.2-0.2,0.4c0,0.2,0.1,0.3,0.2,0.4s0.2,0.2,0.4,0.2
		c0.2,0,0.3-0.1,0.4-0.2S600.6,531.1,600.6,531z"/>
	<path d="M608.4,535.4h-0.6V530c0-0.4-0.1-0.7-0.4-0.9s-0.6-0.4-1.1-0.4c-0.4,0-0.8,0.1-1,0.4c-0.3,0.3-0.4,0.6-0.4,0.9h-0.7
		c0-0.5,0.2-1,0.6-1.3c0.4-0.4,0.9-0.6,1.5-0.6c0.7,0,1.2,0.2,1.6,0.5s0.5,0.8,0.5,1.3V535.4z"/>
	<path d="M615.2,535.4h-0.6v-2.9c0-0.4-0.2-0.8-0.7-1c-0.4-0.2-0.8-0.3-1.3-0.3c-0.5,0-0.9,0.1-1.2,0.4c-0.3,0.3-0.5,0.6-0.5,1
		l0,0.8c0.2-0.1,0.4-0.1,0.6-0.1c0.3,0,0.6,0.1,0.8,0.4c0.2,0.2,0.3,0.5,0.3,0.8c0,0.3-0.1,0.6-0.3,0.8c-0.2,0.2-0.5,0.4-0.8,0.4
		c-0.4,0-0.7-0.1-0.9-0.4c-0.2-0.2-0.3-0.5-0.3-0.8v-1.8c0-0.6,0.2-1.1,0.7-1.5c0.4-0.4,1-0.5,1.6-0.5h0.1c0.5-0.4,1-0.9,1.4-1.3
		c-0.4-0.3-0.9-0.4-1.5-0.4c-0.5,0-1,0.1-1.4,0.3c-0.4,0.2-0.7,0.6-0.8,1h-0.6c0.1-0.6,0.4-1,1-1.4c0.5-0.3,1.1-0.5,1.8-0.5
		c0.7,0,1.3,0.2,1.9,0.5c0.3-0.3,0.4-0.6,0.5-1h0.6c-0.1,0.5-0.3,1-0.7,1.4c0.3,0.3,0.4,0.7,0.4,1.1V535.4z M612.1,534.4
		c0-0.2-0.1-0.3-0.2-0.4s-0.3-0.2-0.4-0.2c-0.2,0-0.3,0.1-0.4,0.2c-0.1,0.1-0.2,0.3-0.2,0.4c0,0.2,0.1,0.3,0.2,0.4
		c0.1,0.1,0.3,0.2,0.4,0.2c0.2,0,0.3-0.1,0.4-0.2C612,534.7,612.1,534.5,612.1,534.4z M614.6,531.2v-1c0-0.2-0.1-0.4-0.2-0.6
		c-0.3,0.4-0.7,0.7-1.1,1C613.9,530.7,614.3,530.9,614.6,531.2z"/>
	<path d="M622.3,535.4h-0.6v-4.7c0-0.9-0.3-1.5-0.9-1.9l-1.2,1.1l-1.2-1.1c-0.6,0.4-0.9,1-0.9,1.9c0,0.4,0.1,0.9,0.3,1.5
		c0.2,0.7,0.3,1.2,0.3,1.7c0.1-0.2,0.4-0.5,0.7-0.8c0.4-0.3,0.6-0.5,0.7-0.7c-0.3,0-0.5-0.1-0.7-0.3c-0.2-0.2-0.3-0.4-0.3-0.7
		c0-0.3,0.1-0.6,0.3-0.8c0.2-0.2,0.4-0.3,0.7-0.3c0.3,0,0.6,0.1,0.8,0.3c0.2,0.2,0.3,0.5,0.3,0.8c0,0.6-0.4,1.2-1.3,2
		c-0.8,0.8-1.3,1.4-1.3,2h-0.6v-1.6c0-0.3-0.1-0.8-0.3-1.5c-0.2-0.6-0.3-1.1-0.3-1.5c0-0.6,0.1-1.1,0.4-1.6c0.3-0.5,0.7-0.9,1.3-1
		l1.1,1l1-1c0.5,0.1,0.9,0.4,1.2,0.9c0.3,0.4,0.4,0.9,0.4,1.5V535.4z M620.2,531.4c0-0.2-0.1-0.3-0.2-0.4c-0.1-0.1-0.2-0.2-0.4-0.2
		c-0.2,0-0.3,0.1-0.4,0.2c-0.1,0.1-0.2,0.2-0.2,0.4c0,0.2,0.1,0.3,0.2,0.4c0.1,0.1,0.2,0.2,0.4,0.2c0.2,0,0.3-0.1,0.4-0.2
		C620.1,531.7,620.2,531.5,620.2,531.4z"/>
	<path d="M627.9,534.4c0,0.3-0.1,0.6-0.3,0.8s-0.5,0.4-0.9,0.4c-0.3,0-0.6-0.1-0.8-0.4c-0.2-0.2-0.4-0.5-0.4-0.8
		c0-0.3,0.1-0.6,0.4-0.8c0.2-0.2,0.5-0.4,0.8-0.4c0.2,0,0.4,0,0.5,0.1v-1.9c0-0.5-1.2-0.9-3.5-1.3c0.1-1.3,0.7-1.9,1.7-1.9
		c0.3,0,0.6,0.1,1.1,0.2c0.5,0.1,0.8,0.2,1,0.2c0.1,0,0.2-0.1,0.3-0.4l0.6,0.1c-0.2,0.6-0.5,0.9-0.9,0.9c-0.3,0-0.6-0.1-1.1-0.2
		c-0.5-0.1-0.8-0.2-1.1-0.2c-0.2,0-0.4,0.1-0.6,0.3c-0.2,0.2-0.3,0.4-0.3,0.6c0.8,0.1,1.5,0.3,2.3,0.6c0.7,0.3,1.1,0.6,1.1,1.1
		V534.4z M627.3,534.3c0-0.2-0.1-0.3-0.2-0.4s-0.3-0.2-0.4-0.2s-0.3,0.1-0.4,0.2s-0.2,0.3-0.2,0.4c0,0.2,0.1,0.3,0.2,0.4
		c0.1,0.1,0.3,0.2,0.4,0.2s0.3-0.1,0.4-0.2C627.2,534.7,627.3,534.5,627.3,534.3z"/>
	<path d="M633.8,535.4h-0.6V530c0-0.4-0.1-0.7-0.4-0.9s-0.6-0.4-1.1-0.4c-0.4,0-0.8,0.1-1,0.4c-0.3,0.3-0.4,0.6-0.4,0.9h-0.7
		c0-0.5,0.2-1,0.6-1.3c0.4-0.4,0.9-0.6,1.5-0.6c0.7,0,1.2,0.2,1.6,0.5s0.5,0.8,0.5,1.3V535.4z"/>
	<path d="M640.4,534.2c0,0.9-0.4,1.3-1.3,1.3c-0.7,0-1.1-0.3-1.2-1l-0.3-2c-0.2,0.1-0.4,0.2-0.6,0.2c-0.3,0-0.6-0.1-0.8-0.3
		c-0.2-0.2-0.3-0.5-0.3-0.8c0-0.3,0.1-0.6,0.3-0.8c0.2-0.2,0.5-0.3,0.8-0.3c0.3,0,0.5,0.1,0.7,0.3c0.2,0.2,0.3,0.4,0.4,0.7l0.5,3.1
		c0,0.3,0.2,0.4,0.5,0.4c0.4,0,0.6-0.2,0.6-0.6v-4.2c0-0.5-0.2-0.8-0.6-1c-0.4-0.2-0.8-0.3-1.3-0.3c-0.5,0-1,0.1-1.3,0.3
		c-0.4,0.2-0.6,0.5-0.7,0.9h-0.7c0.1-0.5,0.3-0.9,0.7-1.3c0.5-0.4,1.1-0.6,1.9-0.6c1.7,0,2.5,0.6,2.5,1.9V534.2z M637.6,531.6
		c0-0.2-0.1-0.3-0.2-0.4c-0.1-0.1-0.2-0.2-0.4-0.2c-0.2,0-0.3,0.1-0.4,0.2c-0.1,0.1-0.2,0.2-0.2,0.4c0,0.2,0.1,0.3,0.2,0.4
		s0.2,0.2,0.4,0.2c0.2,0,0.3-0.1,0.4-0.2S637.6,531.8,637.6,531.6z"/>
	<path d="M646.1,535.4h-0.6V530c0-0.4-0.1-0.7-0.4-0.9s-0.6-0.4-1.1-0.4c-0.4,0-0.8,0.1-1,0.4c-0.3,0.3-0.4,0.6-0.4,0.9h-0.7
		c0-0.5,0.2-1,0.6-1.3c0.4-0.4,0.9-0.6,1.5-0.6c0.7,0,1.2,0.2,1.6,0.5s0.5,0.8,0.5,1.3V535.4z"/>
	<path d="M651.6,534.4c0,0.3-0.1,0.6-0.3,0.8s-0.5,0.4-0.9,0.4c-0.3,0-0.6-0.1-0.8-0.4c-0.2-0.2-0.4-0.5-0.4-0.8
		c0-0.3,0.1-0.6,0.4-0.8c0.2-0.2,0.5-0.4,0.8-0.4c0.2,0,0.4,0,0.5,0.1v-1.9c0-0.5-1.2-0.9-3.5-1.3c0.1-1.3,0.7-1.9,1.7-1.9
		c0.3,0,0.6,0.1,1.1,0.2c0.5,0.1,0.8,0.2,1,0.2c0.1,0,0.2-0.1,0.3-0.4l0.6,0.1c-0.2,0.6-0.5,0.9-0.9,0.9c-0.3,0-0.6-0.1-1.1-0.2
		c-0.5-0.1-0.8-0.2-1.1-0.2c-0.2,0-0.4,0.1-0.6,0.3c-0.2,0.2-0.3,0.4-0.3,0.6c0.8,0.1,1.5,0.3,2.3,0.6c0.7,0.3,1.1,0.6,1.1,1.1
		V534.4z M651.1,534.3c0-0.2-0.1-0.3-0.2-0.4s-0.3-0.2-0.4-0.2s-0.3,0.1-0.4,0.2s-0.2,0.3-0.2,0.4c0,0.2,0.1,0.3,0.2,0.4
		c0.1,0.1,0.3,0.2,0.4,0.2s0.3-0.1,0.4-0.2C651,534.7,651.1,534.5,651.1,534.3z"/>
	<path d="M658.6,533.8c0,1.2-0.8,1.7-2.4,1.7c-1.6,0-2.4-0.6-2.4-1.7v-0.9c0-0.3,0.1-0.5,0.2-0.8s0.4-0.4,0.6-0.5
		c-0.6-0.3-1-0.9-1-1.8c0-0.5,0.1-0.8,0.4-1.1s0.6-0.4,1.1-0.4c0.3,0,0.5,0.1,0.7,0.3s0.3,0.4,0.3,0.7s-0.1,0.5-0.3,0.7
		c-0.2,0.2-0.4,0.3-0.8,0.3c-0.4,0-0.8-0.2-0.9-0.6c0,0,0,0.1,0,0.3c0,0.3,0.1,0.6,0.3,0.9c0.2,0.3,0.5,0.4,0.8,0.4h1v0.6h-1
		c-0.3,0-0.5,0.1-0.7,0.3c-0.2,0.2-0.3,0.4-0.3,0.8v0.8c0,0.8,0.6,1.2,1.8,1.2c1.2,0,1.8-0.4,1.8-1.2v-5.4h0.6V533.8z M655.7,529.2
		c0-0.2-0.1-0.3-0.2-0.4s-0.2-0.2-0.4-0.2c-0.2,0-0.3,0.1-0.4,0.2s-0.2,0.2-0.2,0.4c0,0.4,0.2,0.6,0.6,0.6c0.2,0,0.3-0.1,0.4-0.2
		C655.7,529.5,655.7,529.4,655.7,529.2z"/>
	<path d="M659.4,523.6c0,0.4-0.2,0.7-0.6,0.9c-0.2,0.1-0.5,0.2-0.9,0.3c-0.3,0.1-0.6,0.1-0.6,0.2c0.3,0,0.5,0.1,0.7,0.3
		c0.2,0.2,0.3,0.4,0.3,0.7c0,0.3-0.1,0.5-0.3,0.7c-0.2,0.2-0.4,0.3-0.7,0.3c-0.3,0-0.5-0.1-0.7-0.3c-0.2-0.2-0.3-0.4-0.3-0.7
		c0-0.8,0.4-1.4,1.3-1.6l0.8-0.3c0.3-0.1,0.5-0.3,0.5-0.5H659.4z M657.7,526c0-0.1,0-0.2-0.1-0.3c-0.1-0.1-0.2-0.1-0.3-0.1
		c-0.1,0-0.2,0-0.3,0.1c-0.1,0.1-0.1,0.2-0.1,0.3c0,0.1,0,0.2,0.1,0.3c0.1,0.1,0.2,0.1,0.3,0.1c0.1,0,0.2,0,0.3-0.1
		C657.7,526.2,657.7,526.1,657.7,526z"/>
	<path d="M669.5,535.4h-0.6v-4.7c0-1.3-0.7-1.9-2.1-1.9c-0.6,0-1,0.2-1.5,0.6c-0.4,0.4-0.6,0.8-0.6,1.4c0,0.3,0.1,0.8,0.3,1.4
		c0.2,0.6,0.3,1,0.3,1.4c0,0.2,0,0.4,0,0.5c0.1-0.3,0.4-0.7,0.7-1c0.3-0.3,0.6-0.6,0.8-0.9c-0.3,0-0.6-0.1-0.8-0.3s-0.3-0.5-0.3-0.8
		c0-0.3,0.1-0.6,0.3-0.8s0.5-0.3,0.8-0.3c0.3,0,0.6,0.1,0.8,0.3s0.3,0.5,0.3,0.8c0,0.6-0.4,1.3-1.3,2.2c-0.8,0.9-1.3,1.6-1.3,2.2
		h-0.6v-1.6c0-0.3-0.1-0.8-0.3-1.5c-0.2-0.6-0.3-1.1-0.3-1.5c0-0.8,0.3-1.5,0.8-1.9c0.5-0.5,1.2-0.7,2-0.7c0.8,0,1.5,0.2,1.9,0.7
		s0.7,1,0.7,1.8V535.4z M667.4,531c0-0.2-0.1-0.3-0.2-0.4c-0.1-0.1-0.2-0.2-0.4-0.2c-0.2,0-0.3,0.1-0.4,0.2
		c-0.1,0.1-0.2,0.2-0.2,0.4c0,0.2,0.1,0.3,0.2,0.4c0.1,0.1,0.2,0.2,0.4,0.2c0.2,0,0.3-0.1,0.4-0.2
		C667.4,531.3,667.4,531.1,667.4,531z"/>
	<path d="M675.1,534.4c0,0.3-0.1,0.6-0.3,0.8s-0.5,0.4-0.9,0.4c-0.3,0-0.6-0.1-0.8-0.4c-0.2-0.2-0.4-0.5-0.4-0.8
		c0-0.3,0.1-0.6,0.4-0.8c0.2-0.2,0.5-0.4,0.8-0.4c0.2,0,0.4,0,0.5,0.1v-1.9c0-0.5-1.2-0.9-3.5-1.3c0.1-1.3,0.7-1.9,1.7-1.9
		c0.3,0,0.6,0.1,1.1,0.2c0.5,0.1,0.8,0.2,1,0.2c0.1,0,0.2-0.1,0.3-0.4l0.6,0.1c-0.2,0.6-0.5,0.9-0.9,0.9c-0.3,0-0.6-0.1-1.1-0.2
		c-0.5-0.1-0.8-0.2-1.1-0.2c-0.2,0-0.4,0.1-0.6,0.3c-0.2,0.2-0.3,0.4-0.3,0.6c0.8,0.1,1.5,0.3,2.3,0.6c0.7,0.3,1.1,0.6,1.1,1.1
		V534.4z M674.5,534.3c0-0.2-0.1-0.3-0.2-0.4s-0.3-0.2-0.4-0.2c-0.2,0-0.3,0.1-0.4,0.2s-0.2,0.3-0.2,0.4c0,0.2,0.1,0.3,0.2,0.4
		c0.1,0.1,0.3,0.2,0.4,0.2c0.2,0,0.3-0.1,0.4-0.2C674.5,534.7,674.5,534.5,674.5,534.3z"/>
	<path d="M678.4,534.9c0,0.2-0.1,0.3-0.2,0.4c-0.1,0.1-0.3,0.2-0.4,0.2s-0.3-0.1-0.4-0.2c-0.1-0.1-0.2-0.3-0.2-0.4s0.1-0.3,0.2-0.4
		s0.3-0.2,0.4-0.2s0.3,0.1,0.4,0.2S678.4,534.7,678.4,534.9z"/>
	<path d="M689,535.4h-0.6v-2.9c0-0.4-0.2-0.8-0.7-1c-0.4-0.2-0.8-0.3-1.3-0.3c-0.5,0-0.9,0.1-1.2,0.4c-0.3,0.3-0.5,0.6-0.5,1l0,0.8
		c0.2-0.1,0.4-0.1,0.6-0.1c0.3,0,0.6,0.1,0.8,0.4c0.2,0.2,0.3,0.5,0.3,0.8c0,0.3-0.1,0.6-0.3,0.8s-0.5,0.4-0.8,0.4
		c-0.4,0-0.7-0.1-0.9-0.4s-0.3-0.5-0.3-0.8v-1.8c0-0.6,0.2-1.1,0.7-1.5c0.4-0.4,1-0.5,1.6-0.5h0.1c0.5-0.4,1-0.9,1.4-1.3
		c-0.4-0.3-0.9-0.4-1.5-0.4c-0.5,0-1,0.1-1.4,0.3c-0.4,0.2-0.7,0.6-0.8,1h-0.6c0.1-0.6,0.4-1,1-1.4c0.5-0.3,1.1-0.5,1.8-0.5
		c0.7,0,1.3,0.2,1.9,0.5c0.3-0.3,0.4-0.6,0.5-1h0.6c-0.1,0.5-0.3,1-0.7,1.4c0.3,0.3,0.4,0.7,0.4,1.1V535.4z M685.8,534.4
		c0-0.2-0.1-0.3-0.2-0.4s-0.3-0.2-0.4-0.2c-0.2,0-0.3,0.1-0.4,0.2s-0.2,0.3-0.2,0.4c0,0.2,0.1,0.3,0.2,0.4c0.1,0.1,0.3,0.2,0.4,0.2
		c0.2,0,0.3-0.1,0.4-0.2C685.8,534.7,685.8,534.5,685.8,534.4z M688.3,531.2v-1c0-0.2-0.1-0.4-0.2-0.6c-0.3,0.4-0.7,0.7-1.1,1
		C687.6,530.7,688,530.9,688.3,531.2z"/>
	<path d="M695.7,533.8c0,1.2-0.8,1.7-2.4,1.7c-1.6,0-2.4-0.6-2.4-1.7v-0.9c0-0.3,0.1-0.5,0.2-0.8s0.4-0.4,0.6-0.5
		c-0.6-0.3-1-0.9-1-1.8c0-0.5,0.1-0.8,0.4-1.1c0.3-0.3,0.6-0.4,1.1-0.4c0.3,0,0.5,0.1,0.7,0.3c0.2,0.2,0.3,0.4,0.3,0.7
		s-0.1,0.5-0.3,0.7c-0.2,0.2-0.4,0.3-0.8,0.3c-0.4,0-0.8-0.2-0.9-0.6c0,0,0,0.1,0,0.3c0,0.3,0.1,0.6,0.3,0.9
		c0.2,0.3,0.5,0.4,0.8,0.4h1v0.6h-1c-0.3,0-0.5,0.1-0.7,0.3c-0.2,0.2-0.3,0.4-0.3,0.8v0.8c0,0.8,0.6,1.2,1.8,1.2
		c1.2,0,1.8-0.4,1.8-1.2v-5.4h0.6V533.8z M692.8,529.2c0-0.2-0.1-0.3-0.2-0.4c-0.1-0.1-0.2-0.2-0.4-0.2s-0.3,0.1-0.4,0.2
		c-0.1,0.1-0.2,0.2-0.2,0.4c0,0.4,0.2,0.6,0.6,0.6c0.2,0,0.3-0.1,0.4-0.2C692.8,529.5,692.8,529.4,692.8,529.2z"/>
	<path d="M701.4,535.4h-0.6V530c0-0.4-0.1-0.7-0.4-0.9c-0.3-0.2-0.6-0.4-1.1-0.4c-0.4,0-0.8,0.1-1,0.4c-0.3,0.3-0.4,0.6-0.4,0.9
		h-0.7c0-0.5,0.2-1,0.6-1.3c0.4-0.4,0.9-0.6,1.5-0.6c0.7,0,1.2,0.2,1.6,0.5s0.5,0.8,0.5,1.3V535.4z"/>
	<path d="M708.6,535.4h-0.7c-0.9-0.7-1.8-1.2-2.6-1.4c0,0.1,0.1,0.2,0.1,0.3c0,0.3-0.1,0.6-0.4,0.9c-0.2,0.2-0.5,0.4-0.9,0.4
		c-0.3,0-0.6-0.1-0.9-0.4c-0.2-0.2-0.4-0.5-0.4-0.9s0.1-0.6,0.4-0.9c0.2-0.2,0.5-0.4,0.9-0.4c0.1,0,0.3,0,0.4,0.1v-2.6
		c-0.2,0.1-0.3,0.1-0.5,0.1c-0.3,0-0.6-0.1-0.8-0.4c-0.2-0.2-0.4-0.5-0.4-0.8c0-0.3,0.1-0.6,0.4-0.8c0.2-0.2,0.5-0.4,0.8-0.4
		c0.3,0,0.6,0.1,0.8,0.4c0.2,0.2,0.4,0.5,0.4,0.8v3.9c1.2,0.4,2.1,0.9,2.9,1.5v-6.4h0.6V535.4z M704.5,529.4c0-0.2-0.1-0.3-0.2-0.4
		c-0.1-0.1-0.3-0.2-0.4-0.2c-0.2,0-0.3,0.1-0.4,0.2c-0.1,0.1-0.2,0.3-0.2,0.4c0,0.2,0.1,0.3,0.2,0.4c0.1,0.1,0.3,0.2,0.4,0.2
		c0.2,0,0.3-0.1,0.4-0.2C704.5,529.7,704.5,529.6,704.5,529.4z M704.8,534.3c0-0.2-0.1-0.3-0.2-0.5c-0.1-0.1-0.3-0.2-0.5-0.2
		c-0.2,0-0.3,0.1-0.5,0.2c-0.1,0.1-0.2,0.3-0.2,0.5c0,0.2,0.1,0.3,0.2,0.5c0.1,0.1,0.3,0.2,0.5,0.2c0.2,0,0.3-0.1,0.5-0.2
		C704.7,534.6,704.8,534.5,704.8,534.3z"/>
	<path d="M716.9,534.3c0,0.3-0.1,0.6-0.4,0.9c-0.2,0.2-0.5,0.4-0.9,0.4c-0.4,0-0.7-0.1-0.9-0.4c-0.2-0.2-0.3-0.5-0.3-0.8v-6.1h0.6v5
		c0.2-0.1,0.4-0.1,0.6-0.1c0.3,0,0.6,0.1,0.9,0.4C716.8,533.7,716.9,533.9,716.9,534.3z M716.3,534.3c0-0.2-0.1-0.3-0.2-0.4
		c-0.1-0.1-0.3-0.2-0.4-0.2s-0.3,0.1-0.4,0.2c-0.1,0.1-0.2,0.3-0.2,0.4s0.1,0.3,0.2,0.4c0.1,0.1,0.3,0.2,0.4,0.2s0.3-0.1,0.4-0.2
		C716.2,534.6,716.3,534.5,716.3,534.3z"/>
	<path d="M722.4,534.2c0,0.9-0.4,1.3-1.3,1.3c-0.7,0-1.1-0.3-1.2-1l-0.3-2c-0.2,0.1-0.4,0.2-0.6,0.2c-0.3,0-0.6-0.1-0.8-0.3
		c-0.2-0.2-0.3-0.5-0.3-0.8c0-0.3,0.1-0.6,0.3-0.8s0.5-0.3,0.8-0.3c0.3,0,0.5,0.1,0.7,0.3c0.2,0.2,0.3,0.4,0.4,0.7l0.5,3.1
		c0,0.3,0.2,0.4,0.5,0.4c0.4,0,0.6-0.2,0.6-0.6v-4.2c0-0.5-0.2-0.8-0.6-1c-0.4-0.2-0.8-0.3-1.3-0.3c-0.5,0-1,0.1-1.3,0.3
		c-0.4,0.2-0.6,0.5-0.7,0.9h-0.7c0.1-0.5,0.3-0.9,0.7-1.3c0.5-0.4,1.1-0.6,1.9-0.6c1.7,0,2.5,0.6,2.5,1.9V534.2z M719.6,531.6
		c0-0.2-0.1-0.3-0.2-0.4c-0.1-0.1-0.2-0.2-0.4-0.2c-0.2,0-0.3,0.1-0.4,0.2c-0.1,0.1-0.2,0.2-0.2,0.4c0,0.2,0.1,0.3,0.2,0.4
		c0.1,0.1,0.2,0.2,0.4,0.2c0.2,0,0.3-0.1,0.4-0.2C719.6,531.9,719.6,531.8,719.6,531.6z"/>
	<path d="M728,534.4c0,0.3-0.1,0.6-0.3,0.8s-0.5,0.4-0.9,0.4c-0.3,0-0.6-0.1-0.8-0.4c-0.2-0.2-0.4-0.5-0.4-0.8
		c0-0.3,0.1-0.6,0.4-0.8c0.2-0.2,0.5-0.4,0.8-0.4c0.2,0,0.4,0,0.5,0.1v-1.9c0-0.5-1.2-0.9-3.5-1.3c0.1-1.3,0.7-1.9,1.7-1.9
		c0.3,0,0.6,0.1,1.1,0.2c0.5,0.1,0.8,0.2,1,0.2c0.1,0,0.2-0.1,0.3-0.4l0.6,0.1c-0.2,0.6-0.5,0.9-0.9,0.9c-0.3,0-0.6-0.1-1.1-0.2
		c-0.5-0.1-0.8-0.2-1.1-0.2c-0.2,0-0.4,0.1-0.6,0.3c-0.2,0.2-0.3,0.4-0.3,0.6c0.8,0.1,1.5,0.3,2.3,0.6c0.7,0.3,1.1,0.6,1.1,1.1
		V534.4z M727.4,534.3c0-0.2-0.1-0.3-0.2-0.4c-0.1-0.1-0.3-0.2-0.4-0.2c-0.2,0-0.3,0.1-0.4,0.2s-0.2,0.3-0.2,0.4
		c0,0.2,0.1,0.3,0.2,0.4c0.1,0.1,0.3,0.2,0.4,0.2c0.2,0,0.3-0.1,0.4-0.2C727.4,534.7,727.4,534.5,727.4,534.3z"/>
	<path d="M728.3,527.2c-1.4-0.5-2.7-0.7-3.9-0.7c-0.4,0-0.9,0-1.4,0.1c0-0.6,0.3-1.1,0.8-1.5c0.5-0.3,1-0.5,1.6-0.5
		C727,524.6,728,525.4,728.3,527.2z M727.6,526.5c-0.5-1-1.3-1.5-2.2-1.5c-0.8,0-1.4,0.3-1.7,1c0.3,0,0.5-0.1,0.8-0.1
		C725.7,526,726.7,526.2,727.6,526.5z"/>
	<path d="M737.5,533.9c0,1.1-0.6,1.6-1.8,1.6c-1.2,0-1.7-0.5-1.7-1.6v-3.3c0-1.2-0.6-1.9-1.7-1.9c-0.4,0-0.7,0.1-1.1,0.3
		c-0.3,0.2-0.6,0.5-0.7,0.9c0.7,0,1.1,0.3,1.4,0.8c-0.3,0.1-0.5,0.2-0.8,0.5c-0.2,0.3-0.3,0.5-0.3,0.8v1.2c0.2-0.1,0.3-0.1,0.5-0.1
		c0.3,0,0.6,0.1,0.9,0.3c0.2,0.2,0.3,0.5,0.3,0.8c0,0.3-0.1,0.6-0.3,0.9s-0.5,0.4-0.9,0.4c-0.4,0-0.6-0.1-0.9-0.3
		c-0.2-0.2-0.3-0.5-0.3-0.9v-2.2c0-0.6,0.3-1.1,0.9-1.4c-0.5-0.2-0.9-0.2-1.4-0.2c0.1-0.7,0.4-1.2,0.9-1.7c0.5-0.4,1-0.7,1.7-0.7
		c0.7,0,1.3,0.2,1.7,0.6c0.4,0.4,0.6,1,0.6,1.7v3.4c0,0.7,0.4,1,1.1,1c0.7,0,1.1-0.3,1.1-1v-5.6h0.6V533.9z M732,534.4
		c0-0.2-0.1-0.3-0.2-0.4c-0.1-0.1-0.3-0.2-0.4-0.2s-0.3,0.1-0.4,0.2c-0.1,0.1-0.2,0.3-0.2,0.4s0.1,0.3,0.2,0.4
		c0.1,0.1,0.3,0.2,0.4,0.2s0.3-0.1,0.4-0.2C732,534.7,732,534.5,732,534.4z M737.8,536c0,0.7-0.2,1.3-0.6,1.8s-0.9,0.7-1.7,0.7
		c-0.5,0-0.9-0.2-1.3-0.5c-0.4-0.3-0.6-0.7-0.6-1.1c0-0.3,0.1-0.5,0.3-0.7c0.2-0.2,0.4-0.3,0.7-0.3c0.3,0,0.5,0.1,0.7,0.3
		c0.2,0.2,0.3,0.4,0.3,0.7c0,0.4-0.2,0.8-0.6,0.9c0.1,0.1,0.3,0.1,0.5,0.1c1,0,1.6-0.7,1.6-2H737.8z M735.2,536.9
		c0-0.1,0-0.2-0.1-0.3c-0.1-0.1-0.2-0.1-0.3-0.1c-0.1,0-0.2,0-0.3,0.1c-0.1,0.1-0.1,0.2-0.1,0.3c0,0.1,0,0.2,0.1,0.3
		c0.1,0.1,0.2,0.1,0.3,0.1c0.1,0,0.2,0,0.3-0.1C735.1,537.2,735.2,537,735.2,536.9z"/>
	<path d="M741.9,534.3c0,0.3-0.1,0.6-0.4,0.9c-0.2,0.2-0.5,0.4-0.9,0.4c-0.4,0-0.7-0.1-0.9-0.4c-0.2-0.2-0.3-0.5-0.3-0.8v-6.1h0.6v5
		c0.2-0.1,0.4-0.1,0.6-0.1c0.3,0,0.6,0.1,0.9,0.4C741.8,533.7,741.9,533.9,741.9,534.3z M741.3,534.3c0-0.2-0.1-0.3-0.2-0.4
		c-0.1-0.1-0.3-0.2-0.4-0.2s-0.3,0.1-0.4,0.2c-0.1,0.1-0.2,0.3-0.2,0.4s0.1,0.3,0.2,0.4c0.1,0.1,0.3,0.2,0.4,0.2s0.3-0.1,0.4-0.2
		C741.3,534.6,741.3,534.5,741.3,534.3z"/>
	<path d="M748.1,535.4h-0.6v-2.9c0-0.4-0.2-0.8-0.7-1c-0.4-0.2-0.8-0.3-1.3-0.3c-0.5,0-0.9,0.1-1.2,0.4c-0.3,0.3-0.5,0.6-0.5,1
		l0,0.8c0.2-0.1,0.4-0.1,0.6-0.1c0.3,0,0.6,0.1,0.8,0.4c0.2,0.2,0.3,0.5,0.3,0.8c0,0.3-0.1,0.6-0.3,0.8c-0.2,0.2-0.5,0.4-0.8,0.4
		c-0.4,0-0.7-0.1-0.9-0.4c-0.2-0.2-0.3-0.5-0.3-0.8v-1.8c0-0.6,0.2-1.1,0.7-1.5c0.4-0.4,1-0.5,1.6-0.5h0.1c0.5-0.4,1-0.9,1.4-1.3
		c-0.4-0.3-0.9-0.4-1.5-0.4c-0.5,0-1,0.1-1.4,0.3c-0.4,0.2-0.7,0.6-0.8,1h-0.6c0.1-0.6,0.4-1,1-1.4c0.5-0.3,1.1-0.5,1.8-0.5
		s1.3,0.2,1.9,0.5c0.3-0.3,0.4-0.6,0.5-1h0.6c-0.1,0.5-0.3,1-0.7,1.4c0.3,0.3,0.4,0.7,0.4,1.1V535.4z M744.9,534.4
		c0-0.2-0.1-0.3-0.2-0.4s-0.3-0.2-0.4-0.2c-0.2,0-0.3,0.1-0.4,0.2s-0.2,0.3-0.2,0.4c0,0.2,0.1,0.3,0.2,0.4c0.1,0.1,0.3,0.2,0.4,0.2
		c0.2,0,0.3-0.1,0.4-0.2C744.9,534.7,744.9,534.5,744.9,534.4z M747.4,531.2v-1c0-0.2-0.1-0.4-0.2-0.6c-0.3,0.4-0.7,0.7-1.1,1
		C746.7,530.7,747.1,530.9,747.4,531.2z"/>
	<path d="M748.2,527.2c-1.4-0.5-2.7-0.7-3.9-0.7c-0.4,0-0.9,0-1.4,0.1c0-0.6,0.3-1.1,0.8-1.5c0.5-0.3,1-0.5,1.6-0.5
		c1,0,1.7,0.3,2.2,0.9v-1.7h0.6v3C748.1,526.9,748.1,527,748.2,527.2z M747.5,526.5c-0.5-1-1.3-1.5-2.2-1.5c-0.8,0-1.4,0.3-1.7,1
		c0.3,0,0.5-0.1,0.8-0.1C745.6,526,746.6,526.2,747.5,526.5z"/>
	<path d="M754.8,533.8c0,1.2-0.8,1.7-2.4,1.7c-1.6,0-2.4-0.6-2.4-1.7v-0.9c0-0.3,0.1-0.5,0.2-0.8c0.2-0.3,0.4-0.4,0.6-0.5
		c-0.6-0.3-1-0.9-1-1.8c0-0.5,0.1-0.8,0.4-1.1c0.3-0.3,0.6-0.4,1.1-0.4c0.3,0,0.5,0.1,0.7,0.3c0.2,0.2,0.3,0.4,0.3,0.7
		s-0.1,0.5-0.3,0.7c-0.2,0.2-0.4,0.3-0.8,0.3c-0.4,0-0.8-0.2-0.9-0.6c0,0,0,0.1,0,0.3c0,0.3,0.1,0.6,0.3,0.9
		c0.2,0.3,0.5,0.4,0.8,0.4h1v0.6h-1c-0.3,0-0.5,0.1-0.7,0.3c-0.2,0.2-0.3,0.4-0.3,0.8v0.8c0,0.8,0.6,1.2,1.8,1.2
		c1.2,0,1.8-0.4,1.8-1.2v-5.4h0.6V533.8z M751.9,529.2c0-0.2-0.1-0.3-0.2-0.4c-0.1-0.1-0.2-0.2-0.4-0.2s-0.3,0.1-0.4,0.2
		c-0.1,0.1-0.2,0.2-0.2,0.4c0,0.4,0.2,0.6,0.6,0.6c0.2,0,0.3-0.1,0.4-0.2C751.9,529.5,751.9,529.4,751.9,529.2z"/>
	<path d="M760.1,535.4h-0.6l-3.3-3.7l0.4-0.4l3,3.2v-4c-0.2,0.1-0.4,0.1-0.6,0.1c-0.3,0-0.6-0.1-0.8-0.4c-0.2-0.2-0.4-0.5-0.4-0.8
		c0-0.3,0.1-0.6,0.3-0.9c0.2-0.2,0.5-0.3,0.8-0.3c0.4,0,0.7,0.1,0.9,0.4c0.2,0.2,0.3,0.5,0.3,0.8V535.4z M759.5,529.4
		c0-0.2-0.1-0.3-0.2-0.4s-0.3-0.2-0.4-0.2c-0.2,0-0.3,0.1-0.4,0.2s-0.2,0.3-0.2,0.4s0.1,0.3,0.2,0.4c0.1,0.1,0.3,0.2,0.4,0.2
		c0.2,0,0.3-0.1,0.4-0.2C759.4,529.7,759.5,529.5,759.5,529.4z"/>
	<path d="M564.8,557H564l-1.9-2.8l-1.8,2.8h-0.7v-6c0-0.3,0.1-0.6,0.3-0.8s0.5-0.4,0.8-0.4c0.3,0,0.6,0.1,0.8,0.4s0.4,0.5,0.4,0.8
		c0,0.3-0.1,0.6-0.3,0.8c-0.2,0.2-0.5,0.4-0.8,0.4c-0.2,0-0.3,0-0.5-0.1v4l1.7-2.6h0.5l1.7,2.6v-6.1h0.6V557z M561.5,551
		c0-0.2-0.1-0.3-0.2-0.4c-0.1-0.1-0.3-0.2-0.4-0.2s-0.3,0.1-0.4,0.2c-0.1,0.1-0.2,0.3-0.2,0.4c0,0.2,0.1,0.3,0.2,0.4
		c0.1,0.1,0.3,0.2,0.4,0.2s0.3-0.1,0.4-0.2C561.4,551.3,561.5,551.2,561.5,551z"/>
	<path d="M564.8,560.3c0,0.7-0.4,1.1-1.3,1.1c-0.8,0-1.2-0.4-1.2-1.1v-0.6c-0.1,0-0.2,0.1-0.3,0.1c-0.3,0-0.5-0.1-0.7-0.3
		c-0.2-0.2-0.3-0.4-0.3-0.7s0.1-0.5,0.3-0.7s0.4-0.3,0.7-0.3c0.3,0,0.5,0.1,0.7,0.3s0.3,0.4,0.3,0.7v1.6c0,0.3,0.2,0.4,0.6,0.4
		c0.4,0,0.6-0.1,0.6-0.4v-2.5h0.6V560.3z M562.4,558.8c0-0.1,0-0.2-0.1-0.3c-0.1-0.1-0.2-0.1-0.3-0.1c-0.1,0-0.2,0-0.3,0.1
		c-0.1,0.1-0.1,0.2-0.1,0.3c0,0.1,0,0.2,0.1,0.3c0.1,0.1,0.2,0.1,0.3,0.1c0.1,0,0.2,0,0.3-0.1C562.3,559,562.4,558.9,562.4,558.8z"
		/>
	<path d="M566.1,545.4c-0.2,1.1-0.7,1.9-1.5,2.4c-0.7,0.4-1.5,0.6-2.7,0.6h-0.4V548c0.5-0.2,0.8-0.5,1-0.8c-0.7-0.1-1-0.4-1-1
		c0-0.3,0.1-0.5,0.3-0.7c0.2-0.2,0.4-0.3,0.7-0.3c0.3,0,0.5,0.1,0.7,0.3s0.3,0.4,0.3,0.7c0,0.7-0.3,1.2-0.8,1.6
		c1.6-0.1,2.5-0.9,2.7-2.5H566.1z M563,546.2c0-0.1,0-0.2-0.1-0.3c-0.1-0.1-0.2-0.1-0.3-0.1c-0.1,0-0.2,0-0.3,0.1
		c-0.1,0.1-0.1,0.2-0.1,0.3c0,0.1,0,0.2,0.1,0.3c0.1,0.1,0.2,0.1,0.3,0.1c0.1,0,0.2,0,0.3-0.1C563,546.5,563,546.4,563,546.2z"/>
	<path d="M571.7,555.5c0,1.1-0.8,1.7-2.4,1.7s-2.4-0.6-2.4-1.7v-2.2c0-0.3,0.1-0.6,0.4-0.8c0.2-0.2,0.5-0.4,0.8-0.4
		c0.3,0,0.6,0.1,0.8,0.4c0.2,0.2,0.4,0.5,0.4,0.8c0,0.3-0.1,0.6-0.3,0.8c-0.2,0.2-0.5,0.4-0.9,0.4c-0.2,0-0.4,0-0.5-0.1v1
		c0,0.8,0.6,1.2,1.8,1.2c1.2,0,1.7-0.4,1.7-1.2V552c0-0.5-0.2-0.9-0.6-1.2c-0.4-0.3-0.9-0.4-1.4-0.4c-0.5,0-0.9,0.1-1.3,0.3
		c-0.4,0.3-0.7,0.6-0.8,1h-0.6c0.1-0.6,0.4-1,0.9-1.4c0.5-0.3,1.1-0.5,1.9-0.5c0.7,0,1.3,0.2,1.8,0.5c0.6,0.4,0.9,0.9,0.9,1.6V555.5
		z M568.7,553.2c0-0.2-0.1-0.3-0.2-0.4c-0.1-0.1-0.3-0.2-0.4-0.2s-0.3,0.1-0.4,0.2s-0.2,0.3-0.2,0.4s0.1,0.3,0.2,0.4
		s0.3,0.2,0.4,0.2s0.3-0.1,0.4-0.2C568.7,553.6,568.7,553.4,568.7,553.2z"/>
	<path d="M572.6,547.3c0,0.4-0.1,0.7-0.4,1c-0.3,0.3-0.6,0.4-1,0.4c-0.4,0-0.7-0.1-1-0.4c-0.3-0.3-0.4-0.6-0.4-1
		c0-0.4,0.1-0.7,0.4-1c0.3-0.3,0.6-0.4,1-0.4c0.4,0,0.7,0.1,1,0.4C572.4,546.6,572.6,546.9,572.6,547.3z M572,547.3
		c0-0.2-0.1-0.4-0.2-0.6c-0.2-0.2-0.3-0.2-0.5-0.2c-0.2,0-0.4,0.1-0.6,0.2c-0.2,0.2-0.2,0.3-0.2,0.6c0,0.2,0.1,0.4,0.2,0.5
		s0.3,0.2,0.6,0.2c0.2,0,0.4-0.1,0.5-0.2C571.9,547.7,572,547.5,572,547.3z M577.4,557h-0.6v-5.4c0-0.4-0.1-0.7-0.4-0.9
		s-0.6-0.4-1.1-0.4c-0.4,0-0.8,0.1-1,0.4c-0.3,0.3-0.4,0.6-0.4,0.9h-0.7c0-0.5,0.2-1,0.6-1.3c0.4-0.4,0.9-0.6,1.5-0.6
		c0.7,0,1.2,0.2,1.6,0.5s0.5,0.8,0.5,1.3V557z"/>
	<path d="M585.4,556c0,0.3-0.1,0.6-0.4,0.8c-0.2,0.2-0.5,0.3-0.8,0.3c-0.3,0-0.6-0.1-0.8-0.3c-0.2-0.2-0.3-0.5-0.3-0.8v-0.1
		c-0.7,0.3-1.3,0.7-1.7,1.2h-0.8v-5c-0.2,0.1-0.3,0.1-0.5,0.1c-0.3,0-0.6-0.1-0.8-0.4c-0.2-0.2-0.4-0.5-0.4-0.8
		c0-0.3,0.1-0.6,0.4-0.8c0.2-0.2,0.5-0.4,0.8-0.4c0.3,0,0.6,0.1,0.8,0.4s0.4,0.5,0.4,0.8v5.3c0.2-0.3,0.7-0.5,1.3-0.8
		c0.7-0.3,1.1-0.6,1.3-0.7c0.4-0.3,0.6-0.7,0.6-1.2v-3.6h0.6v3.7c0,0.6-0.1,1-0.4,1.3C585.1,555.1,585.4,555.4,585.4,556z
		 M580.5,551c0-0.2-0.1-0.3-0.2-0.4c-0.1-0.1-0.3-0.2-0.4-0.2s-0.3,0.1-0.4,0.2c-0.1,0.1-0.2,0.3-0.2,0.4c0,0.2,0.1,0.3,0.2,0.4
		c0.1,0.1,0.3,0.2,0.4,0.2s0.3-0.1,0.4-0.2C580.5,551.3,580.5,551.2,580.5,551z M584.8,555.9c0-0.2-0.1-0.3-0.2-0.4
		c-0.1-0.1-0.3-0.2-0.4-0.2c-0.2,0-0.3,0.1-0.4,0.2c-0.1,0.1-0.2,0.3-0.2,0.4s0.1,0.3,0.2,0.4c0.1,0.1,0.3,0.2,0.4,0.2
		c0.2,0,0.3-0.1,0.4-0.2C584.7,556.2,584.8,556.1,584.8,555.9z"/>
	<path d="M591,556c0,0.3-0.1,0.6-0.4,0.8s-0.5,0.4-0.8,0.4s-0.6-0.1-0.8-0.4c-0.2-0.2-0.4-0.5-0.4-0.8c0-0.3,0.1-0.6,0.4-0.8
		c0.2-0.2,0.5-0.4,0.8-0.4c0.2,0,0.4,0,0.5,0.1V552c0-1.1-0.6-1.6-1.8-1.6c-0.9,0-1.5,0.4-1.8,1.3h-0.6c0.3-1.3,1.1-1.9,2.4-1.9
		c0.7,0,1.3,0.2,1.7,0.5c0.5,0.4,0.7,0.9,0.7,1.5V556z M590.4,555.9c0-0.2-0.1-0.3-0.2-0.4s-0.3-0.2-0.4-0.2s-0.3,0.1-0.4,0.2
		s-0.2,0.3-0.2,0.4c0,0.2,0.1,0.3,0.2,0.4c0.1,0.1,0.3,0.2,0.4,0.2s0.3-0.1,0.4-0.2C590.4,556.3,590.4,556.1,590.4,555.9z"/>
	<path d="M597.8,555.4c0,1.2-0.8,1.7-2.4,1.7c-1.6,0-2.4-0.6-2.4-1.7v-0.9c0-0.3,0.1-0.5,0.2-0.8s0.4-0.4,0.6-0.5
		c-0.6-0.3-1-0.9-1-1.8c0-0.5,0.1-0.8,0.4-1.1s0.6-0.4,1.1-0.4c0.3,0,0.5,0.1,0.7,0.3s0.3,0.4,0.3,0.7s-0.1,0.5-0.3,0.7
		c-0.2,0.2-0.4,0.3-0.8,0.3c-0.4,0-0.8-0.2-0.9-0.6c0,0,0,0.1,0,0.3c0,0.3,0.1,0.6,0.3,0.9c0.2,0.3,0.5,0.4,0.8,0.4h1v0.6h-1
		c-0.3,0-0.5,0.1-0.7,0.3c-0.2,0.2-0.3,0.4-0.3,0.8v0.8c0,0.8,0.6,1.2,1.8,1.2c1.2,0,1.8-0.4,1.8-1.2v-5.4h0.6V555.4z M594.9,550.8
		c0-0.2-0.1-0.3-0.2-0.4s-0.2-0.2-0.4-0.2c-0.2,0-0.3,0.1-0.4,0.2s-0.2,0.2-0.2,0.4c0,0.4,0.2,0.6,0.6,0.6c0.2,0,0.3-0.1,0.4-0.2
		C594.8,551.1,594.9,551,594.9,550.8z"/>
	<path d="M604.7,557h-0.6v-4.7c0-0.6-0.2-1.1-0.5-1.4c-0.4-0.3-0.8-0.5-1.4-0.5c-0.4,0-0.8,0.1-1.2,0.3c-0.4,0.2-0.6,0.5-0.8,0.9
		c0.7,0.1,1.2,0.3,1.5,0.8c-0.3,0.1-0.5,0.2-0.8,0.5c-0.2,0.3-0.3,0.5-0.3,0.9v3.3h-0.6v-3.3c0-0.7,0.3-1.2,0.9-1.4
		c-0.4-0.2-0.9-0.3-1.4-0.2c0.1-0.7,0.4-1.2,0.9-1.7c0.5-0.4,1.1-0.6,1.8-0.6c0.8,0,1.4,0.2,1.9,0.6c0.5,0.4,0.7,1,0.7,1.8V557z"/>
	<path d="M610.4,557h-0.6v-5.4c0-0.4-0.1-0.7-0.4-0.9s-0.6-0.4-1.1-0.4c-0.4,0-0.8,0.1-1,0.4c-0.3,0.3-0.4,0.6-0.4,0.9h-0.7
		c0-0.5,0.2-1,0.6-1.3c0.4-0.4,0.9-0.6,1.5-0.6c0.7,0,1.2,0.2,1.6,0.5s0.5,0.8,0.5,1.3V557z"/>
	<path d="M616,556c0,0.3-0.1,0.6-0.3,0.8s-0.5,0.4-0.9,0.4c-0.3,0-0.6-0.1-0.8-0.4c-0.2-0.2-0.4-0.5-0.4-0.8c0-0.3,0.1-0.6,0.4-0.8
		c0.2-0.2,0.5-0.4,0.8-0.4c0.2,0,0.4,0,0.5,0.1V553c0-0.5-1.2-0.9-3.5-1.3c0.1-1.3,0.7-1.9,1.7-1.9c0.3,0,0.6,0.1,1.1,0.2
		c0.5,0.1,0.8,0.2,1,0.2c0.1,0,0.2-0.1,0.3-0.4l0.6,0.1c-0.2,0.6-0.5,0.9-0.9,0.9c-0.3,0-0.6-0.1-1.1-0.2c-0.5-0.1-0.8-0.2-1.1-0.2
		c-0.2,0-0.4,0.1-0.6,0.3c-0.2,0.2-0.3,0.4-0.3,0.6c0.8,0.1,1.5,0.3,2.3,0.6c0.7,0.3,1.1,0.6,1.1,1.1V556z M615.4,555.9
		c0-0.2-0.1-0.3-0.2-0.4s-0.3-0.2-0.4-0.2s-0.3,0.1-0.4,0.2s-0.2,0.3-0.2,0.4c0,0.2,0.1,0.3,0.2,0.4c0.1,0.1,0.3,0.2,0.4,0.2
		s0.3-0.1,0.4-0.2C615.3,556.3,615.4,556.1,615.4,555.9z"/>
	<path d="M623.1,557h-0.6v-2.9c0-0.4-0.2-0.8-0.7-1c-0.4-0.2-0.8-0.3-1.3-0.3c-0.5,0-0.9,0.1-1.2,0.4c-0.3,0.3-0.5,0.6-0.5,1l0,0.8
		c0.2-0.1,0.4-0.1,0.6-0.1c0.3,0,0.6,0.1,0.8,0.4c0.2,0.2,0.3,0.5,0.3,0.8c0,0.3-0.1,0.6-0.3,0.8c-0.2,0.2-0.5,0.4-0.8,0.4
		c-0.4,0-0.7-0.1-0.9-0.4c-0.2-0.2-0.3-0.5-0.3-0.8v-1.8c0-0.6,0.2-1.1,0.7-1.5c0.4-0.4,1-0.5,1.6-0.5h0.1c0.5-0.4,1-0.9,1.4-1.3
		c-0.4-0.3-0.9-0.4-1.5-0.4c-0.5,0-1,0.1-1.4,0.3c-0.4,0.2-0.7,0.6-0.8,1h-0.6c0.1-0.6,0.4-1,1-1.4c0.5-0.3,1.1-0.5,1.8-0.5
		s1.3,0.2,1.9,0.5c0.3-0.3,0.4-0.6,0.5-1h0.6c-0.1,0.5-0.3,1-0.7,1.4c0.3,0.3,0.4,0.7,0.4,1.1V557z M619.9,556
		c0-0.2-0.1-0.3-0.2-0.4s-0.3-0.2-0.4-0.2c-0.2,0-0.3,0.1-0.4,0.2c-0.1,0.1-0.2,0.3-0.2,0.4c0,0.2,0.1,0.3,0.2,0.4
		c0.1,0.1,0.3,0.2,0.4,0.2c0.2,0,0.3-0.1,0.4-0.2C619.8,556.3,619.9,556.1,619.9,556z M622.4,552.8v-1c0-0.2-0.1-0.4-0.2-0.6
		c-0.3,0.4-0.7,0.7-1.1,1C621.7,552.3,622.1,552.5,622.4,552.8z"/>
	<path d="M629.9,557h-0.6v-4.7c0-0.6-0.2-1.1-0.5-1.4c-0.4-0.3-0.8-0.5-1.4-0.5c-0.4,0-0.8,0.1-1.2,0.3c-0.4,0.2-0.6,0.5-0.8,0.9
		c0.7,0.1,1.2,0.3,1.4,0.8c-0.3,0.1-0.5,0.2-0.7,0.5c-0.2,0.3-0.3,0.5-0.3,0.8l0,1.2c0.2-0.1,0.4-0.1,0.5-0.1c0.3,0,0.6,0.1,0.9,0.3
		c0.2,0.2,0.4,0.5,0.4,0.8c0,0.4-0.1,0.6-0.3,0.9c-0.2,0.2-0.5,0.3-0.9,0.3c-0.3,0-0.6-0.1-0.9-0.3c-0.2-0.2-0.3-0.5-0.3-0.8v-2.2
		c0-0.6,0.3-1.1,0.9-1.4c-0.3-0.1-0.8-0.2-1.4-0.2c0.1-0.7,0.4-1.2,0.9-1.6c0.5-0.4,1.1-0.7,1.8-0.7c0.8,0,1.4,0.2,1.9,0.6
		c0.5,0.4,0.7,1,0.7,1.8V557z M626.8,556c0-0.2-0.1-0.3-0.2-0.4c-0.1-0.1-0.3-0.2-0.4-0.2s-0.3,0.1-0.4,0.2
		c-0.1,0.1-0.2,0.3-0.2,0.4c0,0.2,0.1,0.3,0.2,0.4c0.1,0.1,0.3,0.2,0.4,0.2s0.3-0.1,0.4-0.2C626.8,556.3,626.8,556.1,626.8,556z"/>
	<path d="M635.5,557h-0.6v-5.4c0-0.4-0.1-0.7-0.4-0.9s-0.6-0.4-1.1-0.4c-0.4,0-0.8,0.1-1,0.4c-0.3,0.3-0.4,0.6-0.4,0.9h-0.7
		c0-0.5,0.2-1,0.6-1.3c0.4-0.4,0.9-0.6,1.5-0.6c0.7,0,1.2,0.2,1.6,0.5s0.5,0.8,0.5,1.3V557z"/>
	<path d="M643.2,555.5c0,1.1-0.8,1.7-2.3,1.7c-1.6,0-2.3-0.6-2.3-1.7V552c-0.2,0.1-0.3,0.1-0.5,0.1c-0.3,0-0.6-0.1-0.8-0.4
		c-0.2-0.2-0.4-0.5-0.4-0.8c0-0.3,0.1-0.6,0.4-0.8c0.2-0.2,0.5-0.4,0.8-0.4c0.3,0,0.6,0.1,0.8,0.4s0.4,0.5,0.4,0.8v4.4
		c0,0.8,0.6,1.1,1.7,1.1c1.1,0,1.7-0.4,1.7-1.1v-5.5h0.6V555.5z M638.7,551c0-0.2-0.1-0.3-0.2-0.4c-0.1-0.1-0.3-0.2-0.4-0.2
		s-0.3,0.1-0.4,0.2c-0.1,0.1-0.2,0.3-0.2,0.4c0,0.2,0.1,0.3,0.2,0.4c0.1,0.1,0.3,0.2,0.4,0.2s0.3-0.1,0.4-0.2
		C638.6,551.3,638.7,551.2,638.7,551z"/>
	<path d="M645.1,545.9c0,0.8-0.3,1.5-0.8,2c-0.5,0.5-1.2,0.8-2,0.8c-0.7,0-1.3-0.1-1.7-0.4c-0.4-0.3-0.6-0.7-0.6-1.1
		c0-0.3,0.1-0.6,0.3-0.8c0.2-0.2,0.5-0.3,0.8-0.3s0.6,0.1,0.8,0.3c0.2,0.2,0.3,0.5,0.3,0.8c0,0.4-0.2,0.7-0.6,1
		c0.2,0,0.4,0.1,0.7,0.1c0.6,0,1.1-0.2,1.5-0.7c0.3-0.4,0.5-0.9,0.5-1.5H645.1z M641.8,547c0-0.2-0.1-0.3-0.2-0.4
		c-0.1-0.1-0.2-0.2-0.4-0.2c-0.2,0-0.3,0.1-0.4,0.2c-0.1,0.1-0.2,0.3-0.2,0.4s0.1,0.3,0.2,0.4c0.1,0.1,0.3,0.2,0.4,0.2
		c0.2,0,0.3-0.1,0.4-0.2S641.8,547.2,641.8,547z"/>
	<path d="M651.2,556c0,0.3-0.1,0.6-0.4,0.8c-0.2,0.2-0.5,0.3-0.8,0.3c-0.3,0-0.6-0.1-0.8-0.3c-0.2-0.2-0.3-0.5-0.3-0.8v-0.1
		c-0.7,0.3-1.3,0.7-1.7,1.2h-0.8v-5c-0.2,0.1-0.3,0.1-0.5,0.1c-0.3,0-0.6-0.1-0.8-0.4c-0.2-0.2-0.4-0.5-0.4-0.8
		c0-0.3,0.1-0.6,0.4-0.8c0.2-0.2,0.5-0.4,0.8-0.4c0.3,0,0.6,0.1,0.8,0.4s0.4,0.5,0.4,0.8v5.3c0.2-0.3,0.7-0.5,1.3-0.8
		c0.7-0.3,1.1-0.6,1.3-0.7c0.4-0.3,0.6-0.7,0.6-1.2v-3.6h0.6v3.7c0,0.6-0.1,1-0.4,1.3C650.9,555.1,651.2,555.4,651.2,556z
		 M646.4,551c0-0.2-0.1-0.3-0.2-0.4c-0.1-0.1-0.3-0.2-0.4-0.2s-0.3,0.1-0.4,0.2c-0.1,0.1-0.2,0.3-0.2,0.4c0,0.2,0.1,0.3,0.2,0.4
		c0.1,0.1,0.3,0.2,0.4,0.2s0.3-0.1,0.4-0.2C646.3,551.3,646.4,551.2,646.4,551z M650.6,555.9c0-0.2-0.1-0.3-0.2-0.4
		c-0.1-0.1-0.3-0.2-0.4-0.2c-0.2,0-0.3,0.1-0.4,0.2c-0.1,0.1-0.2,0.3-0.2,0.4s0.1,0.3,0.2,0.4c0.1,0.1,0.3,0.2,0.4,0.2
		c0.2,0,0.3-0.1,0.4-0.2C650.5,556.2,650.6,556.1,650.6,555.9z"/>
	<path d="M656.8,556c0,0.3-0.1,0.6-0.4,0.8s-0.5,0.4-0.8,0.4s-0.6-0.1-0.8-0.4c-0.2-0.2-0.4-0.5-0.4-0.8c0-0.3,0.1-0.6,0.4-0.8
		c0.2-0.2,0.5-0.4,0.8-0.4c0.2,0,0.4,0,0.5,0.1V552c0-1.1-0.6-1.6-1.8-1.6c-0.9,0-1.5,0.4-1.8,1.3H652c0.3-1.3,1.1-1.9,2.4-1.9
		c0.7,0,1.3,0.2,1.7,0.5c0.5,0.4,0.7,0.9,0.7,1.5V556z M656.3,555.9c0-0.2-0.1-0.3-0.2-0.4s-0.3-0.2-0.4-0.2c-0.2,0-0.3,0.1-0.4,0.2
		s-0.2,0.3-0.2,0.4c0,0.2,0.1,0.3,0.2,0.4c0.1,0.1,0.3,0.2,0.4,0.2c0.2,0,0.3-0.1,0.4-0.2C656.2,556.3,656.3,556.1,656.3,555.9z"/>
	<path d="M656.9,548.8c-1.4-0.5-2.7-0.7-3.9-0.7c-0.4,0-0.9,0-1.4,0.1c0-0.6,0.3-1.1,0.8-1.5c0.5-0.3,1-0.5,1.6-0.5
		C655.7,546.2,656.6,547,656.9,548.8z M656.2,548.1c-0.5-1-1.3-1.5-2.2-1.5c-0.8,0-1.4,0.3-1.7,1c0.3,0,0.5-0.1,0.8-0.1
		C654.4,547.6,655.4,547.8,656.2,548.1z"/>
	<path d="M664.6,557h-0.6v-5.8c0-0.5-0.2-0.8-0.5-0.8c-0.2,0-0.4,0.2-0.6,0.5l-2.3,6.1h-0.7v-5c-0.2,0.1-0.3,0.1-0.5,0.1
		c-0.3,0-0.6-0.1-0.8-0.4c-0.2-0.2-0.4-0.5-0.4-0.8c0-0.3,0.1-0.6,0.4-0.8c0.2-0.2,0.5-0.4,0.8-0.4c0.3,0,0.6,0.1,0.8,0.4
		s0.4,0.5,0.4,0.8v3.5c0,0.6-0.1,0.9-0.1,1.2c0.1-0.2,0.2-0.6,0.3-1l1.5-3.9c0.3-0.7,0.7-1,1.2-1c0.7,0,1.1,0.5,1.1,1.4V557z
		 M660,551c0-0.2-0.1-0.3-0.2-0.4c-0.1-0.1-0.3-0.2-0.4-0.2s-0.3,0.1-0.4,0.2c-0.1,0.1-0.2,0.3-0.2,0.4s0.1,0.3,0.2,0.4
		s0.3,0.2,0.4,0.2s0.3-0.1,0.4-0.2S660,551.1,660,551z"/>
	<path d="M671.3,555.4c0,1.2-0.8,1.7-2.4,1.7c-1.6,0-2.4-0.6-2.4-1.7v-0.9c0-0.3,0.1-0.5,0.2-0.8s0.4-0.4,0.6-0.5
		c-0.6-0.3-1-0.9-1-1.8c0-0.5,0.1-0.8,0.4-1.1c0.3-0.3,0.6-0.4,1.1-0.4c0.3,0,0.5,0.1,0.7,0.3c0.2,0.2,0.3,0.4,0.3,0.7
		s-0.1,0.5-0.3,0.7c-0.2,0.2-0.4,0.3-0.8,0.3c-0.4,0-0.8-0.2-0.9-0.6c0,0,0,0.1,0,0.3c0,0.3,0.1,0.6,0.3,0.9
		c0.2,0.3,0.5,0.4,0.8,0.4h1v0.6h-1c-0.3,0-0.5,0.1-0.7,0.3c-0.2,0.2-0.3,0.4-0.3,0.8v0.8c0,0.8,0.6,1.2,1.8,1.2
		c1.2,0,1.8-0.4,1.8-1.2v-5.4h0.6V555.4z M668.4,550.8c0-0.2-0.1-0.3-0.2-0.4c-0.1-0.1-0.2-0.2-0.4-0.2c-0.2,0-0.3,0.1-0.4,0.2
		c-0.1,0.1-0.2,0.2-0.2,0.4c0,0.4,0.2,0.6,0.6,0.6c0.2,0,0.3-0.1,0.4-0.2C668.4,551.1,668.4,551,668.4,550.8z"/>
	<path d="M677,557h-0.6v-5.4c0-0.4-0.1-0.7-0.4-0.9c-0.3-0.2-0.6-0.4-1.1-0.4c-0.4,0-0.8,0.1-1,0.4c-0.3,0.3-0.4,0.6-0.4,0.9h-0.7
		c0-0.5,0.2-1,0.6-1.3c0.4-0.4,0.9-0.6,1.5-0.6c0.7,0,1.2,0.2,1.6,0.5s0.5,0.8,0.5,1.3V557z"/>
	<path d="M684,557h-0.6v-4.7c0-0.6-0.2-1.1-0.5-1.4c-0.4-0.3-0.8-0.5-1.4-0.5c-0.4,0-0.8,0.1-1.2,0.3s-0.6,0.5-0.8,0.9
		c0.7,0.1,1.2,0.3,1.5,0.8c-0.3,0.1-0.5,0.2-0.8,0.5s-0.3,0.5-0.3,0.9v3.3h-0.6v-3.3c0-0.7,0.3-1.2,0.9-1.4
		c-0.4-0.2-0.9-0.3-1.4-0.2c0.1-0.7,0.4-1.2,0.9-1.7c0.5-0.4,1.1-0.6,1.8-0.6c0.8,0,1.4,0.2,1.9,0.6c0.5,0.4,0.7,1,0.7,1.8V557z"/>
	<path d="M689.7,557H689v-5.4c0-0.4-0.1-0.7-0.4-0.9c-0.3-0.2-0.6-0.4-1.1-0.4c-0.4,0-0.8,0.1-1,0.4c-0.3,0.3-0.4,0.6-0.4,0.9h-0.7
		c0-0.5,0.2-1,0.6-1.3c0.4-0.4,0.9-0.6,1.5-0.6c0.7,0,1.2,0.2,1.6,0.5s0.5,0.8,0.5,1.3V557z"/>
	<path d="M695.2,556c0,0.3-0.1,0.6-0.3,0.8s-0.5,0.4-0.9,0.4c-0.3,0-0.6-0.1-0.8-0.4c-0.2-0.2-0.4-0.5-0.4-0.8
		c0-0.3,0.1-0.6,0.4-0.8c0.2-0.2,0.5-0.4,0.8-0.4c0.2,0,0.4,0,0.5,0.1V553c0-0.5-1.2-0.9-3.5-1.3c0.1-1.3,0.7-1.9,1.7-1.9
		c0.3,0,0.6,0.1,1.1,0.2c0.5,0.1,0.8,0.2,1,0.2c0.1,0,0.2-0.1,0.3-0.4l0.6,0.1c-0.2,0.6-0.5,0.9-0.9,0.9c-0.3,0-0.6-0.1-1.1-0.2
		c-0.5-0.1-0.8-0.2-1.1-0.2c-0.2,0-0.4,0.1-0.6,0.3c-0.2,0.2-0.3,0.4-0.3,0.6c0.8,0.1,1.5,0.3,2.3,0.6c0.7,0.3,1.1,0.6,1.1,1.1V556z
		 M694.7,555.9c0-0.2-0.1-0.3-0.2-0.4s-0.3-0.2-0.4-0.2c-0.2,0-0.3,0.1-0.4,0.2s-0.2,0.3-0.2,0.4c0,0.2,0.1,0.3,0.2,0.4
		c0.1,0.1,0.3,0.2,0.4,0.2c0.2,0,0.3-0.1,0.4-0.2C694.6,556.3,694.7,556.1,694.7,555.9z"/>
	<path d="M703.1,557h-0.6v-3.9c0-0.6-0.1-0.8-0.4-0.8c-0.2,0-0.4,0.2-0.6,0.6l-2.3,4.1h-0.6v-5c-0.2,0.1-0.3,0.1-0.5,0.1
		c-0.3,0-0.6-0.1-0.8-0.4c-0.2-0.2-0.4-0.5-0.4-0.8c0-0.3,0.1-0.6,0.4-0.8c0.2-0.2,0.5-0.4,0.8-0.4c0.3,0,0.6,0.1,0.8,0.4
		c0.2,0.2,0.4,0.5,0.4,0.8v3.9c0,0.1,0,0.5-0.1,1.1c0.1-0.3,0.3-0.6,0.4-0.8l1.5-2.7c0.2-0.3,0.4-0.5,0.6-0.6
		c-0.3-0.2-0.4-0.5-0.4-0.9c0-0.3,0.1-0.6,0.4-0.8c0.2-0.2,0.5-0.3,0.8-0.3s0.6,0.1,0.8,0.4c0.2,0.2,0.4,0.5,0.4,0.8
		c0,0.5-0.2,0.8-0.6,1c0.2,0.2,0.3,0.6,0.3,1.1V557z M698.6,551c0-0.2-0.1-0.3-0.2-0.4c-0.1-0.1-0.3-0.2-0.4-0.2
		c-0.2,0-0.3,0.1-0.4,0.2c-0.1,0.1-0.2,0.3-0.2,0.4c0,0.2,0.1,0.3,0.2,0.4c0.1,0.1,0.3,0.2,0.4,0.2c0.2,0,0.3-0.1,0.4-0.2
		C698.5,551.3,698.6,551.2,698.6,551z M702.9,551c0-0.2-0.1-0.3-0.2-0.4c-0.1-0.1-0.3-0.2-0.4-0.2c-0.2,0-0.3,0.1-0.4,0.2
		c-0.1,0.1-0.2,0.3-0.2,0.4c0,0.2,0.1,0.3,0.2,0.4c0.1,0.1,0.3,0.2,0.4,0.2c0.2,0,0.3-0.1,0.4-0.2
		C702.8,551.3,702.9,551.2,702.9,551z"/>
	<path d="M703.1,561.2h-0.6v-1.5c-0.1,0-0.2,0.1-0.3,0.1c-0.3,0-0.5-0.1-0.7-0.3c-0.2-0.2-0.3-0.4-0.3-0.7s0.1-0.5,0.3-0.7
		c0.2-0.2,0.4-0.3,0.7-0.3s0.5,0.1,0.7,0.3s0.3,0.4,0.3,0.7V561.2z M702.6,558.8c0-0.1,0-0.2-0.1-0.3c-0.1-0.1-0.2-0.1-0.3-0.1
		s-0.2,0-0.3,0.1c-0.1,0.1-0.1,0.2-0.1,0.3c0,0.1,0,0.2,0.1,0.3c0.1,0.1,0.2,0.1,0.3,0.1s0.2,0,0.3-0.1
		C702.6,559,702.6,558.9,702.6,558.8z"/>
	<path d="M703.1,548.4h-0.6v-2.6h0.6V548.4z"/>
	<path d="M711.1,556c0,0.3-0.1,0.6-0.4,0.8c-0.2,0.2-0.5,0.3-0.8,0.3s-0.6-0.1-0.8-0.3c-0.2-0.2-0.3-0.5-0.3-0.8v-0.1
		c-0.7,0.3-1.3,0.7-1.7,1.2h-0.8v-5c-0.2,0.1-0.3,0.1-0.5,0.1c-0.3,0-0.6-0.1-0.8-0.4c-0.2-0.2-0.4-0.5-0.4-0.8
		c0-0.3,0.1-0.6,0.4-0.8c0.2-0.2,0.5-0.4,0.8-0.4c0.3,0,0.6,0.1,0.8,0.4c0.2,0.2,0.4,0.5,0.4,0.8v5.3c0.2-0.3,0.7-0.5,1.3-0.8
		c0.7-0.3,1.1-0.6,1.3-0.7c0.4-0.3,0.6-0.7,0.6-1.2v-3.6h0.6v3.7c0,0.6-0.1,1-0.4,1.3C710.8,555.1,711.1,555.4,711.1,556z
		 M706.2,551c0-0.2-0.1-0.3-0.2-0.4c-0.1-0.1-0.3-0.2-0.4-0.2c-0.2,0-0.3,0.1-0.4,0.2c-0.1,0.1-0.2,0.3-0.2,0.4
		c0,0.2,0.1,0.3,0.2,0.4c0.1,0.1,0.3,0.2,0.4,0.2c0.2,0,0.3-0.1,0.4-0.2C706.2,551.3,706.2,551.2,706.2,551z M710.5,555.9
		c0-0.2-0.1-0.3-0.2-0.4c-0.1-0.1-0.3-0.2-0.4-0.2s-0.3,0.1-0.4,0.2c-0.1,0.1-0.2,0.3-0.2,0.4s0.1,0.3,0.2,0.4
		c0.1,0.1,0.3,0.2,0.4,0.2s0.3-0.1,0.4-0.2C710.4,556.2,710.5,556.1,710.5,555.9z"/>
	<path d="M717.4,555.4c0,1.2-0.8,1.7-2.4,1.7c-1.6,0-2.4-0.6-2.4-1.7v-0.9c0-0.3,0.1-0.5,0.2-0.8s0.4-0.4,0.6-0.5
		c-0.6-0.3-1-0.9-1-1.8c0-0.5,0.1-0.8,0.4-1.1c0.3-0.3,0.6-0.4,1.1-0.4c0.3,0,0.5,0.1,0.7,0.3c0.2,0.2,0.3,0.4,0.3,0.7
		s-0.1,0.5-0.3,0.7c-0.2,0.2-0.4,0.3-0.8,0.3c-0.4,0-0.8-0.2-0.9-0.6c0,0,0,0.1,0,0.3c0,0.3,0.1,0.6,0.3,0.9
		c0.2,0.3,0.5,0.4,0.8,0.4h1v0.6h-1c-0.3,0-0.5,0.1-0.7,0.3c-0.2,0.2-0.3,0.4-0.3,0.8v0.8c0,0.8,0.6,1.2,1.8,1.2
		c1.2,0,1.8-0.4,1.8-1.2v-5.4h0.6V555.4z M714.5,550.8c0-0.2-0.1-0.3-0.2-0.4c-0.1-0.1-0.2-0.2-0.4-0.2c-0.2,0-0.3,0.1-0.4,0.2
		c-0.1,0.1-0.2,0.2-0.2,0.4c0,0.4,0.2,0.6,0.6,0.6c0.2,0,0.3-0.1,0.4-0.2C714.5,551.1,714.5,551,714.5,550.8z"/>
	<path d="M725.4,556c0,0.3-0.1,0.6-0.4,0.8c-0.2,0.2-0.5,0.3-0.8,0.3c-0.3,0-0.6-0.1-0.8-0.3c-0.2-0.2-0.3-0.5-0.3-0.8v-0.1
		c-0.7,0.3-1.3,0.7-1.7,1.2h-0.8v-5c-0.2,0.1-0.3,0.1-0.5,0.1c-0.3,0-0.6-0.1-0.8-0.4c-0.2-0.2-0.4-0.5-0.4-0.8
		c0-0.3,0.1-0.6,0.4-0.8c0.2-0.2,0.5-0.4,0.8-0.4s0.6,0.1,0.8,0.4s0.4,0.5,0.4,0.8v5.3c0.2-0.3,0.7-0.5,1.3-0.8
		c0.7-0.3,1.1-0.6,1.3-0.7c0.4-0.3,0.6-0.7,0.6-1.2v-3.6h0.6v3.7c0,0.6-0.1,1-0.4,1.3C725.1,555.1,725.4,555.4,725.4,556z
		 M720.6,551c0-0.2-0.1-0.3-0.2-0.4c-0.1-0.1-0.3-0.2-0.4-0.2c-0.2,0-0.3,0.1-0.4,0.2c-0.1,0.1-0.2,0.3-0.2,0.4
		c0,0.2,0.1,0.3,0.2,0.4c0.1,0.1,0.3,0.2,0.4,0.2c0.2,0,0.3-0.1,0.4-0.2C720.5,551.3,720.6,551.2,720.6,551z M724.8,555.9
		c0-0.2-0.1-0.3-0.2-0.4c-0.1-0.1-0.3-0.2-0.4-0.2s-0.3,0.1-0.4,0.2c-0.1,0.1-0.2,0.3-0.2,0.4s0.1,0.3,0.2,0.4s0.3,0.2,0.4,0.2
		s0.3-0.1,0.4-0.2C724.7,556.2,724.8,556.1,724.8,555.9z"/>
	<path d="M732,557h-0.6v-4.7c0-0.9-0.3-1.5-0.9-1.9l-1.2,1.1l-1.2-1.1c-0.6,0.4-0.9,1-0.9,1.9c0,0.4,0.1,0.9,0.3,1.5
		c0.2,0.7,0.3,1.2,0.3,1.7c0.1-0.2,0.4-0.5,0.7-0.8c0.4-0.3,0.6-0.5,0.7-0.7c-0.3,0-0.5-0.1-0.7-0.3c-0.2-0.2-0.3-0.4-0.3-0.7
		c0-0.3,0.1-0.6,0.3-0.8c0.2-0.2,0.4-0.3,0.7-0.3s0.6,0.1,0.8,0.3c0.2,0.2,0.3,0.5,0.3,0.8c0,0.6-0.4,1.2-1.3,2
		c-0.8,0.8-1.3,1.4-1.3,2h-0.6v-1.6c0-0.3-0.1-0.8-0.3-1.5c-0.2-0.6-0.3-1.1-0.3-1.5c0-0.6,0.1-1.1,0.4-1.6c0.3-0.5,0.7-0.9,1.3-1
		l1.1,1l1-1c0.5,0.1,0.9,0.4,1.2,0.9c0.3,0.4,0.4,0.9,0.4,1.5V557z M730,553c0-0.2-0.1-0.3-0.2-0.4c-0.1-0.1-0.2-0.2-0.4-0.2
		s-0.3,0.1-0.4,0.2c-0.1,0.1-0.2,0.2-0.2,0.4c0,0.2,0.1,0.3,0.2,0.4c0.1,0.1,0.2,0.2,0.4,0.2s0.3-0.1,0.4-0.2
		C729.9,553.3,730,553.1,730,553z"/>
	<path d="M732.8,545.2c0,0.4-0.2,0.7-0.6,0.9c-0.2,0.1-0.5,0.2-0.9,0.3c-0.3,0.1-0.6,0.1-0.6,0.2c0.3,0,0.5,0.1,0.7,0.3
		s0.3,0.4,0.3,0.7c0,0.3-0.1,0.5-0.3,0.7c-0.2,0.2-0.4,0.3-0.7,0.3s-0.5-0.1-0.7-0.3c-0.2-0.2-0.3-0.4-0.3-0.7
		c0-0.8,0.4-1.4,1.3-1.6l0.8-0.3c0.3-0.1,0.5-0.3,0.5-0.5H732.8z M731.2,547.6c0-0.1,0-0.2-0.1-0.3c-0.1-0.1-0.2-0.1-0.3-0.1
		c-0.1,0-0.2,0-0.3,0.1c-0.1,0.1-0.1,0.2-0.1,0.3c0,0.1,0,0.2,0.1,0.3c0.1,0.1,0.2,0.1,0.3,0.1c0.1,0,0.2,0,0.3-0.1
		C731.1,547.8,731.2,547.7,731.2,547.6z"/>
	<path d="M739.7,557H739v-4.7c0-0.6-0.2-1.1-0.5-1.4c-0.4-0.4-0.8-0.5-1.4-0.5c-0.4,0-0.8,0.1-1.2,0.3c-0.4,0.2-0.6,0.5-0.8,0.9
		c0.6,0.1,1.1,0.3,1.5,0.8c-0.6,0.2-1,0.7-1,1.3c0,0.5,0.1,0.9,0.2,1.4c0,0.2,0.1,0.5,0.1,0.8c0,0.3-0.1,0.6-0.3,0.9
		c-0.2,0.2-0.5,0.4-0.9,0.4c-0.3,0-0.6-0.1-0.8-0.3s-0.3-0.5-0.3-0.8c0-0.3,0.1-0.6,0.3-0.8c0.2-0.2,0.5-0.4,0.8-0.4
		c0.1,0,0.3,0,0.4,0.1c-0.1-0.5-0.1-1-0.1-1.3c0-0.5,0.2-1,0.7-1.3c-0.3-0.1-0.6-0.2-1-0.2c-0.2,0-0.3,0-0.3,0
		c0.1-0.7,0.4-1.2,0.9-1.7c0.5-0.4,1.1-0.7,1.8-0.7c0.8,0,1.4,0.2,1.9,0.7s0.7,1,0.7,1.8V557z M735.3,556c0-0.2-0.1-0.3-0.2-0.4
		s-0.3-0.2-0.4-0.2c-0.2,0-0.3,0.1-0.4,0.2s-0.2,0.3-0.2,0.4c0,0.2,0.1,0.3,0.2,0.4c0.1,0.1,0.3,0.2,0.4,0.2c0.2,0,0.3-0.1,0.4-0.2
		C735.2,556.3,735.3,556.1,735.3,556z"/>
	<path d="M745.4,557h-0.6v-5.4c0-0.4-0.1-0.7-0.4-0.9c-0.3-0.2-0.6-0.4-1.1-0.4c-0.4,0-0.8,0.1-1,0.4c-0.3,0.3-0.4,0.6-0.4,0.9h-0.7
		c0-0.5,0.2-1,0.6-1.3c0.4-0.4,0.9-0.6,1.5-0.6c0.7,0,1.2,0.2,1.6,0.5s0.5,0.8,0.5,1.3V557z"/>
	<path d="M752.5,557h-0.6v-4.8c0-0.6-0.2-1-0.6-1.3c-0.4-0.3-0.9-0.5-1.5-0.5c-0.6,0-1,0.2-1.5,0.6c-0.4,0.4-0.6,0.8-0.6,1.4
		c0,0.3,0,0.6,0.1,0.9c0.1,0.5,0.2,0.8,0.2,0.9c0.1-0.7,0.3-1.3,0.6-1.7c0.3-0.6,0.8-0.9,1.3-0.9c0.3,0,0.5,0.1,0.7,0.3
		c0.2,0.2,0.3,0.5,0.3,0.8c0,0.3-0.1,0.6-0.3,0.8s-0.5,0.3-0.8,0.3c-0.3,0-0.6-0.1-0.8-0.4c-0.2,0.3-0.3,0.6-0.5,1.1
		c-0.2,0.6-0.3,1.1-0.3,1.5v1.2h-0.6v-1.7c0-0.3-0.1-0.8-0.3-1.5c-0.2-0.6-0.3-1.1-0.3-1.5c0-0.8,0.3-1.4,0.8-1.9
		c0.5-0.5,1.2-0.7,2-0.7c0.7,0,1.4,0.2,1.9,0.6c0.5,0.4,0.8,1,0.8,1.7V557z M750.4,552.6c0-0.2-0.1-0.3-0.2-0.4
		c-0.1-0.1-0.2-0.2-0.4-0.2c-0.2,0-0.3,0.1-0.4,0.2c-0.1,0.1-0.2,0.2-0.2,0.4c0,0.2,0.1,0.3,0.2,0.4c0.1,0.1,0.2,0.2,0.4,0.2
		c0.2,0,0.3-0.1,0.4-0.2C750.3,552.9,750.4,552.7,750.4,552.6z"/>
	<path d="M759.3,557h-0.6v-2.9c0-0.4-0.2-0.8-0.7-1c-0.4-0.2-0.8-0.3-1.3-0.3c-0.5,0-0.9,0.1-1.2,0.4c-0.3,0.3-0.5,0.6-0.5,1l0,0.8
		c0.2-0.1,0.4-0.1,0.6-0.1c0.3,0,0.6,0.1,0.8,0.4c0.2,0.2,0.3,0.5,0.3,0.8c0,0.3-0.1,0.6-0.3,0.8c-0.2,0.2-0.5,0.4-0.8,0.4
		c-0.4,0-0.7-0.1-0.9-0.4c-0.2-0.2-0.3-0.5-0.3-0.8v-1.8c0-0.6,0.2-1.1,0.7-1.5c0.4-0.4,1-0.5,1.6-0.5h0.1c0.5-0.4,1-0.9,1.4-1.3
		c-0.4-0.3-0.9-0.4-1.5-0.4c-0.5,0-1,0.1-1.4,0.3c-0.4,0.2-0.7,0.6-0.8,1h-0.6c0.1-0.6,0.4-1,1-1.4c0.5-0.3,1.1-0.5,1.8-0.5
		s1.3,0.2,1.9,0.5c0.3-0.3,0.4-0.6,0.5-1h0.6c-0.1,0.5-0.3,1-0.7,1.4c0.3,0.3,0.4,0.7,0.4,1.1V557z M756.2,556
		c0-0.2-0.1-0.3-0.2-0.4s-0.3-0.2-0.4-0.2c-0.2,0-0.3,0.1-0.4,0.2s-0.2,0.3-0.2,0.4c0,0.2,0.1,0.3,0.2,0.4c0.1,0.1,0.3,0.2,0.4,0.2
		c0.2,0,0.3-0.1,0.4-0.2C756.1,556.3,756.2,556.1,756.2,556z M758.7,552.8v-1c0-0.2-0.1-0.4-0.2-0.6c-0.3,0.4-0.7,0.7-1.1,1
		C757.9,552.3,758.3,552.5,758.7,552.8z"/>
	<path d="M767.2,556c0,0.3-0.1,0.6-0.4,0.8c-0.2,0.2-0.5,0.3-0.8,0.3c-0.3,0-0.6-0.1-0.8-0.3c-0.2-0.2-0.3-0.5-0.3-0.8v-0.1
		c-0.7,0.3-1.3,0.7-1.7,1.2h-0.8v-5c-0.2,0.1-0.3,0.1-0.5,0.1c-0.3,0-0.6-0.1-0.8-0.4c-0.2-0.2-0.4-0.5-0.4-0.8
		c0-0.3,0.1-0.6,0.4-0.8c0.2-0.2,0.5-0.4,0.8-0.4s0.6,0.1,0.8,0.4s0.4,0.5,0.4,0.8v5.3c0.2-0.3,0.7-0.5,1.3-0.8
		c0.7-0.3,1.1-0.6,1.3-0.7c0.4-0.3,0.6-0.7,0.6-1.2v-3.6h0.6v3.7c0,0.6-0.1,1-0.4,1.3C767,555.1,767.2,555.4,767.2,556z M762.4,551
		c0-0.2-0.1-0.3-0.2-0.4c-0.1-0.1-0.3-0.2-0.4-0.2c-0.2,0-0.3,0.1-0.4,0.2c-0.1,0.1-0.2,0.3-0.2,0.4c0,0.2,0.1,0.3,0.2,0.4
		c0.1,0.1,0.3,0.2,0.4,0.2c0.2,0,0.3-0.1,0.4-0.2C762.4,551.3,762.4,551.2,762.4,551z M766.7,555.9c0-0.2-0.1-0.3-0.2-0.4
		c-0.1-0.1-0.3-0.2-0.4-0.2s-0.3,0.1-0.4,0.2c-0.1,0.1-0.2,0.3-0.2,0.4s0.1,0.3,0.2,0.4s0.3,0.2,0.4,0.2s0.3-0.1,0.4-0.2
		C766.6,556.2,766.7,556.1,766.7,555.9z"/>
	<path d="M772.6,557h-0.6v-5.4c0-0.4-0.1-0.7-0.4-0.9c-0.3-0.2-0.6-0.4-1.1-0.4c-0.4,0-0.8,0.1-1,0.4c-0.3,0.3-0.4,0.6-0.4,0.9h-0.7
		c0-0.5,0.2-1,0.6-1.3c0.4-0.4,0.9-0.6,1.5-0.6c0.7,0,1.2,0.2,1.6,0.5s0.5,0.8,0.5,1.3V557z"/>
	<path d="M779.8,557h-0.7c-0.9-0.7-1.8-1.2-2.6-1.4c0,0.1,0.1,0.2,0.1,0.3c0,0.3-0.1,0.6-0.4,0.9c-0.2,0.2-0.5,0.4-0.9,0.4
		c-0.3,0-0.6-0.1-0.9-0.4c-0.2-0.2-0.4-0.5-0.4-0.9s0.1-0.6,0.4-0.9c0.2-0.2,0.5-0.4,0.9-0.4c0.1,0,0.3,0,0.4,0.1V552
		c-0.2,0.1-0.3,0.1-0.5,0.1c-0.3,0-0.6-0.1-0.8-0.4c-0.2-0.2-0.4-0.5-0.4-0.8c0-0.3,0.1-0.6,0.4-0.8c0.2-0.2,0.5-0.4,0.8-0.4
		s0.6,0.1,0.8,0.4s0.4,0.5,0.4,0.8v3.9c1.2,0.4,2.1,0.9,2.9,1.5v-6.4h0.6V557z M775.7,551c0-0.2-0.1-0.3-0.2-0.4
		c-0.1-0.1-0.3-0.2-0.4-0.2c-0.2,0-0.3,0.1-0.4,0.2c-0.1,0.1-0.2,0.3-0.2,0.4c0,0.2,0.1,0.3,0.2,0.4c0.1,0.1,0.3,0.2,0.4,0.2
		c0.2,0,0.3-0.1,0.4-0.2C775.6,551.3,775.7,551.2,775.7,551z M775.9,555.9c0-0.2-0.1-0.3-0.2-0.5c-0.1-0.1-0.3-0.2-0.5-0.2
		s-0.3,0.1-0.5,0.2c-0.1,0.1-0.2,0.3-0.2,0.5c0,0.2,0.1,0.3,0.2,0.5c0.1,0.1,0.3,0.2,0.5,0.2s0.3-0.1,0.5-0.2
		C775.8,556.2,775.9,556.1,775.9,555.9z"/>
	<path d="M576.1,578.6h-0.7c-0.9-0.7-1.8-1.2-2.6-1.4c0,0.1,0.1,0.2,0.1,0.3c0,0.3-0.1,0.6-0.4,0.9c-0.2,0.2-0.5,0.4-0.9,0.4
		s-0.6-0.1-0.9-0.4c-0.2-0.2-0.4-0.5-0.4-0.9s0.1-0.6,0.4-0.9c0.2-0.2,0.5-0.4,0.9-0.4c0.1,0,0.3,0,0.4,0.1v-2.6
		c-0.2,0.1-0.3,0.1-0.5,0.1c-0.3,0-0.6-0.1-0.8-0.4c-0.2-0.2-0.4-0.5-0.4-0.8c0-0.3,0.1-0.6,0.4-0.8c0.2-0.2,0.5-0.4,0.8-0.4
		c0.3,0,0.6,0.1,0.8,0.4s0.4,0.5,0.4,0.8v3.9c1.2,0.4,2.1,0.9,2.9,1.5v-6.4h0.6V578.6z M572,572.6c0-0.2-0.1-0.3-0.2-0.4
		c-0.1-0.1-0.3-0.2-0.4-0.2s-0.3,0.1-0.4,0.2c-0.1,0.1-0.2,0.3-0.2,0.4c0,0.2,0.1,0.3,0.2,0.4c0.1,0.1,0.3,0.2,0.4,0.2
		s0.3-0.1,0.4-0.2C572,572.9,572,572.8,572,572.6z M572.2,577.5c0-0.2-0.1-0.3-0.2-0.5c-0.1-0.1-0.3-0.2-0.5-0.2
		c-0.2,0-0.3,0.1-0.5,0.2c-0.1,0.1-0.2,0.3-0.2,0.5c0,0.2,0.1,0.3,0.2,0.5c0.1,0.1,0.3,0.2,0.5,0.2c0.2,0,0.3-0.1,0.5-0.2
		C572.2,577.8,572.2,577.7,572.2,577.5z"/>
	<path d="M583.8,578.6h-0.6v-3.9c0-0.6-0.1-0.8-0.4-0.8c-0.2,0-0.4,0.2-0.6,0.6l-2.3,4.1h-0.6v-5c-0.2,0.1-0.3,0.1-0.5,0.1
		c-0.3,0-0.6-0.1-0.8-0.4c-0.2-0.2-0.4-0.5-0.4-0.8c0-0.3,0.1-0.6,0.4-0.8c0.2-0.2,0.5-0.4,0.8-0.4c0.3,0,0.6,0.1,0.8,0.4
		s0.4,0.5,0.4,0.8v3.9c0,0.1,0,0.5-0.1,1.1c0.1-0.3,0.3-0.6,0.4-0.8l1.5-2.7c0.2-0.3,0.4-0.5,0.6-0.6c-0.3-0.2-0.4-0.5-0.4-0.9
		c0-0.3,0.1-0.6,0.4-0.8c0.2-0.2,0.5-0.3,0.8-0.3c0.3,0,0.6,0.1,0.8,0.4c0.2,0.2,0.4,0.5,0.4,0.8c0,0.5-0.2,0.8-0.6,1
		c0.2,0.2,0.3,0.6,0.3,1.1V578.6z M579.2,572.6c0-0.2-0.1-0.3-0.2-0.4c-0.1-0.1-0.3-0.2-0.4-0.2s-0.3,0.1-0.4,0.2
		c-0.1,0.1-0.2,0.3-0.2,0.4c0,0.2,0.1,0.3,0.2,0.4c0.1,0.1,0.3,0.2,0.4,0.2s0.3-0.1,0.4-0.2C579.2,572.9,579.2,572.8,579.2,572.6z
		 M583.5,572.6c0-0.2-0.1-0.3-0.2-0.4c-0.1-0.1-0.3-0.2-0.4-0.2c-0.2,0-0.3,0.1-0.4,0.2c-0.1,0.1-0.2,0.3-0.2,0.4
		c0,0.2,0.1,0.3,0.2,0.4c0.1,0.1,0.3,0.2,0.4,0.2c0.2,0,0.3-0.1,0.4-0.2C583.5,572.9,583.5,572.8,583.5,572.6z"/>
	<path d="M589.5,578.6h-0.6v-5.4c0-0.4-0.1-0.7-0.4-0.9s-0.6-0.4-1.1-0.4c-0.4,0-0.8,0.1-1,0.4c-0.3,0.3-0.4,0.6-0.4,0.9h-0.7
		c0-0.5,0.2-1,0.6-1.3c0.4-0.4,0.9-0.6,1.5-0.6c0.7,0,1.2,0.2,1.6,0.5s0.5,0.8,0.5,1.3V578.6z"/>
	<path d="M595.5,577.6c0,0.3-0.1,0.6-0.4,0.8s-0.5,0.4-0.8,0.4s-0.6-0.1-0.8-0.4c-0.2-0.2-0.4-0.5-0.4-0.8c0-0.3,0.1-0.6,0.4-0.8
		c0.2-0.2,0.5-0.4,0.8-0.4c0.2,0,0.4,0,0.5,0.1v-2.9c0-1.1-0.6-1.6-1.8-1.6c-0.9,0-1.5,0.4-1.8,1.3h-0.6c0.3-1.3,1.1-1.9,2.4-1.9
		c0.7,0,1.3,0.2,1.7,0.5c0.5,0.4,0.7,0.9,0.7,1.5V577.6z M594.9,577.5c0-0.2-0.1-0.3-0.2-0.4s-0.3-0.2-0.4-0.2s-0.3,0.1-0.4,0.2
		s-0.2,0.3-0.2,0.4c0,0.2,0.1,0.3,0.2,0.4c0.1,0.1,0.3,0.2,0.4,0.2s0.3-0.1,0.4-0.2C594.9,577.9,594.9,577.7,594.9,577.5z"/>
	<path d="M595.6,570.4c-1.4-0.5-2.7-0.7-3.9-0.7c-0.4,0-0.9,0-1.4,0.1c0-0.6,0.3-1.1,0.8-1.5c0.5-0.3,1-0.5,1.6-0.5
		C594.4,567.8,595.3,568.6,595.6,570.4z M594.9,569.7c-0.5-1-1.3-1.5-2.2-1.5c-0.8,0-1.4,0.3-1.7,1c0.3,0,0.5-0.1,0.8-0.1
		C593.1,569.2,594.1,569.4,594.9,569.7z"/>
	<path d="M603.3,578.6h-0.6v-5.8c0-0.5-0.2-0.8-0.5-0.8c-0.2,0-0.4,0.2-0.6,0.5l-2.3,6.1h-0.7v-5c-0.2,0.1-0.3,0.1-0.5,0.1
		c-0.3,0-0.6-0.1-0.8-0.4c-0.2-0.2-0.4-0.5-0.4-0.8c0-0.3,0.1-0.6,0.4-0.8c0.2-0.2,0.5-0.4,0.8-0.4c0.3,0,0.6,0.1,0.8,0.4
		s0.4,0.5,0.4,0.8v3.5c0,0.6-0.1,0.9-0.1,1.2c0.1-0.2,0.2-0.6,0.3-1l1.5-3.9c0.3-0.7,0.7-1,1.2-1c0.7,0,1.1,0.5,1.1,1.4V578.6z
		 M598.6,572.6c0-0.2-0.1-0.3-0.2-0.4c-0.1-0.1-0.3-0.2-0.4-0.2s-0.3,0.1-0.4,0.2c-0.1,0.1-0.2,0.3-0.2,0.4s0.1,0.3,0.2,0.4
		s0.3,0.2,0.4,0.2s0.3-0.1,0.4-0.2S598.6,572.7,598.6,572.6z"/>
	<path d="M610,577c0,1.2-0.8,1.7-2.4,1.7c-1.6,0-2.4-0.6-2.4-1.7v-0.9c0-0.3,0.1-0.5,0.2-0.8s0.4-0.4,0.6-0.5c-0.6-0.3-1-0.9-1-1.8
		c0-0.5,0.1-0.8,0.4-1.1s0.6-0.4,1.1-0.4c0.3,0,0.5,0.1,0.7,0.3s0.3,0.4,0.3,0.7s-0.1,0.5-0.3,0.7c-0.2,0.2-0.4,0.3-0.8,0.3
		c-0.4,0-0.8-0.2-0.9-0.6c0,0,0,0.1,0,0.3c0,0.3,0.1,0.6,0.3,0.9c0.2,0.3,0.5,0.4,0.8,0.4h1v0.6h-1c-0.3,0-0.5,0.1-0.7,0.3
		c-0.2,0.2-0.3,0.4-0.3,0.8v0.8c0,0.8,0.6,1.2,1.8,1.2c1.2,0,1.8-0.4,1.8-1.2v-5.4h0.6V577z M607.1,572.4c0-0.2-0.1-0.3-0.2-0.4
		s-0.2-0.2-0.4-0.2c-0.2,0-0.3,0.1-0.4,0.2s-0.2,0.2-0.2,0.4c0,0.4,0.2,0.6,0.6,0.6c0.2,0,0.3-0.1,0.4-0.2
		C607.1,572.7,607.1,572.6,607.1,572.4z"/>
	<path d="M615.7,578.6h-0.6v-5.4c0-0.4-0.1-0.7-0.4-0.9s-0.6-0.4-1.1-0.4c-0.4,0-0.8,0.1-1,0.4c-0.3,0.3-0.4,0.6-0.4,0.9h-0.7
		c0-0.5,0.2-1,0.6-1.3c0.4-0.4,0.9-0.6,1.5-0.6c0.7,0,1.2,0.2,1.6,0.5s0.5,0.8,0.5,1.3V578.6z"/>
	<path d="M622.6,578.6h-0.6v-3.1c0-0.4-0.2-0.8-0.7-1c-0.4-0.2-0.8-0.3-1.3-0.3c-0.5,0-0.9,0.1-1.2,0.4c-0.3,0.3-0.5,0.6-0.5,1
		l0,0.9c0.2-0.1,0.4-0.1,0.6-0.1c0.3,0,0.6,0.1,0.8,0.4c0.2,0.2,0.3,0.5,0.3,0.8c0,0.3-0.1,0.6-0.3,0.8c-0.2,0.2-0.5,0.4-0.8,0.4
		c-0.4,0-0.7-0.1-0.9-0.4c-0.2-0.2-0.3-0.5-0.3-0.8v-1.9c0-0.6,0.2-1.1,0.7-1.5c0.4-0.4,1-0.5,1.6-0.5c0.8,0,1.5,0.2,2,0.7v-0.9
		c0-0.4-0.2-0.8-0.7-1.1c-0.4-0.2-0.8-0.4-1.3-0.4c-0.5,0-1,0.1-1.4,0.3c-0.4,0.2-0.7,0.6-0.8,1h-0.6c0.1-0.6,0.4-1,1-1.4
		c0.5-0.3,1.1-0.5,1.8-0.5c0.7,0,1.3,0.2,1.8,0.5c0.6,0.4,0.9,0.9,0.9,1.6V578.6z M619.4,577.6c0-0.2-0.1-0.3-0.2-0.4
		s-0.3-0.2-0.4-0.2c-0.2,0-0.3,0.1-0.4,0.2c-0.1,0.1-0.2,0.3-0.2,0.4c0,0.2,0.1,0.3,0.2,0.4c0.1,0.1,0.3,0.2,0.4,0.2
		c0.2,0,0.3-0.1,0.4-0.2C619.3,577.9,619.4,577.7,619.4,577.6z"/>
	<path d="M624.4,567.5c0,0.8-0.3,1.5-0.8,2c-0.5,0.5-1.2,0.8-2,0.8c-0.7,0-1.3-0.1-1.7-0.4c-0.4-0.3-0.6-0.7-0.6-1.1
		c0-0.3,0.1-0.6,0.3-0.8c0.2-0.2,0.5-0.3,0.8-0.3s0.6,0.1,0.8,0.3c0.2,0.2,0.3,0.5,0.3,0.8c0,0.4-0.2,0.7-0.6,1
		c0.2,0,0.4,0.1,0.7,0.1c0.6,0,1.1-0.2,1.5-0.7c0.3-0.4,0.5-0.9,0.5-1.5H624.4z M621.1,568.6c0-0.2-0.1-0.3-0.2-0.4
		c-0.1-0.1-0.2-0.2-0.4-0.2c-0.2,0-0.3,0.1-0.4,0.2c-0.1,0.1-0.2,0.3-0.2,0.4s0.1,0.3,0.2,0.4c0.1,0.1,0.3,0.2,0.4,0.2
		c0.2,0,0.3-0.1,0.4-0.2S621.1,568.8,621.1,568.6z"/>
	<path d="M629.3,577c0,1.2-0.8,1.7-2.4,1.7c-1.6,0-2.4-0.6-2.4-1.7v-0.9c0-0.3,0.1-0.5,0.2-0.8s0.4-0.4,0.6-0.5
		c-0.6-0.3-1-0.9-1-1.8c0-0.5,0.1-0.8,0.4-1.1s0.6-0.4,1.1-0.4c0.3,0,0.5,0.1,0.7,0.3s0.3,0.4,0.3,0.7s-0.1,0.5-0.3,0.7
		c-0.2,0.2-0.4,0.3-0.8,0.3c-0.4,0-0.8-0.2-0.9-0.6c0,0,0,0.1,0,0.3c0,0.3,0.1,0.6,0.3,0.9c0.2,0.3,0.5,0.4,0.8,0.4h1v0.6h-1
		c-0.3,0-0.5,0.1-0.7,0.3c-0.2,0.2-0.3,0.4-0.3,0.8v0.8c0,0.8,0.6,1.2,1.8,1.2c1.2,0,1.8-0.4,1.8-1.2v-5.4h0.6V577z M626.4,572.4
		c0-0.2-0.1-0.3-0.2-0.4s-0.2-0.2-0.4-0.2c-0.2,0-0.3,0.1-0.4,0.2s-0.2,0.2-0.2,0.4c0,0.4,0.2,0.6,0.6,0.6c0.2,0,0.3-0.1,0.4-0.2
		C626.4,572.7,626.4,572.6,626.4,572.4z"/>
	<path d="M633.7,577.5c0,0.3-0.1,0.6-0.4,0.9c-0.2,0.2-0.5,0.4-0.9,0.4c-0.4,0-0.7-0.1-0.9-0.4c-0.2-0.2-0.3-0.5-0.3-0.8v-6.1h0.6v5
		c0.2-0.1,0.4-0.1,0.6-0.1c0.3,0,0.6,0.1,0.9,0.4C633.6,576.9,633.7,577.1,633.7,577.5z M633.1,577.5c0-0.2-0.1-0.3-0.2-0.4
		c-0.1-0.1-0.3-0.2-0.4-0.2c-0.2,0-0.3,0.1-0.4,0.2c-0.1,0.1-0.2,0.3-0.2,0.4s0.1,0.3,0.2,0.4c0.1,0.1,0.3,0.2,0.4,0.2
		c0.2,0,0.3-0.1,0.4-0.2C633,577.8,633.1,577.7,633.1,577.5z"/>
	<path d="M640.7,578.6h-0.6v-5.8c0-0.5-0.2-0.8-0.5-0.8c-0.2,0-0.4,0.2-0.6,0.5l-2.3,6.1H636v-5c-0.2,0.1-0.3,0.1-0.5,0.1
		c-0.3,0-0.6-0.1-0.8-0.4c-0.2-0.2-0.4-0.5-0.4-0.8c0-0.3,0.1-0.6,0.4-0.8c0.2-0.2,0.5-0.4,0.8-0.4c0.3,0,0.6,0.1,0.8,0.4
		s0.4,0.5,0.4,0.8v3.5c0,0.6-0.1,0.9-0.1,1.2c0.1-0.2,0.2-0.6,0.3-1l1.5-3.9c0.3-0.7,0.7-1,1.2-1c0.7,0,1.1,0.5,1.1,1.4V578.6z
		 M636.1,572.6c0-0.2-0.1-0.3-0.2-0.4c-0.1-0.1-0.3-0.2-0.4-0.2s-0.3,0.1-0.4,0.2c-0.1,0.1-0.2,0.3-0.2,0.4s0.1,0.3,0.2,0.4
		s0.3,0.2,0.4,0.2s0.3-0.1,0.4-0.2S636.1,572.7,636.1,572.6z"/>
	<path d="M647.8,578.6h-0.6v-4.8c0-0.6-0.2-1-0.6-1.3c-0.4-0.3-0.9-0.5-1.5-0.5c-0.6,0-1,0.2-1.5,0.6c-0.4,0.4-0.6,0.8-0.6,1.4
		c0,0.3,0,0.6,0.1,0.9c0.1,0.5,0.2,0.8,0.2,0.9c0.1-0.7,0.3-1.3,0.6-1.7c0.3-0.6,0.8-0.9,1.3-0.9c0.3,0,0.5,0.1,0.7,0.3
		c0.2,0.2,0.3,0.5,0.3,0.8c0,0.3-0.1,0.6-0.3,0.8s-0.5,0.3-0.8,0.3c-0.3,0-0.6-0.1-0.8-0.4c-0.2,0.3-0.3,0.6-0.5,1.1
		c-0.2,0.6-0.3,1.1-0.3,1.5v1.2h-0.6v-1.7c0-0.3-0.1-0.8-0.3-1.5s-0.3-1.1-0.3-1.5c0-0.8,0.3-1.4,0.8-1.9c0.5-0.5,1.2-0.7,2-0.7
		c0.7,0,1.4,0.2,1.9,0.6c0.5,0.4,0.8,1,0.8,1.7V578.6z M645.7,574.2c0-0.2-0.1-0.3-0.2-0.4c-0.1-0.1-0.2-0.2-0.4-0.2
		c-0.2,0-0.3,0.1-0.4,0.2c-0.1,0.1-0.2,0.2-0.2,0.4c0,0.2,0.1,0.3,0.2,0.4c0.1,0.1,0.2,0.2,0.4,0.2c0.2,0,0.3-0.1,0.4-0.2
		C645.7,574.5,645.7,574.3,645.7,574.2z"/>
	<path d="M652.8,577.5c0,0.3-0.1,0.6-0.4,0.9c-0.2,0.2-0.5,0.4-0.9,0.4c-0.4,0-0.7-0.1-0.9-0.4c-0.2-0.2-0.3-0.5-0.3-0.8V570
		c0-0.3-0.3-0.7-0.8-1s-1-0.5-1.5-0.5c0.1-1.1,0.6-1.7,1.7-1.7c0.2,0,0.5,0.1,0.9,0.3c0.4,0.2,0.7,0.3,0.9,0.3
		c0.2,0,0.3-0.1,0.4-0.4l0.5,0.1c-0.2,0.6-0.4,0.9-0.8,0.9c-0.2,0-0.5-0.1-1-0.3c-0.4-0.2-0.8-0.3-1-0.3c-0.5,0-0.8,0.2-0.8,0.7
		c1.4,0.4,2.1,1.1,2.1,2v6.4c0.2-0.1,0.4-0.1,0.6-0.1c0.3,0,0.6,0.1,0.9,0.4C652.7,576.9,652.8,577.2,652.8,577.5z M652.2,577.5
		c0-0.2-0.1-0.3-0.2-0.4c-0.1-0.1-0.3-0.2-0.4-0.2c-0.2,0-0.3,0.1-0.4,0.2c-0.1,0.1-0.2,0.3-0.2,0.4s0.1,0.3,0.2,0.4
		c0.1,0.1,0.3,0.2,0.4,0.2s0.3-0.1,0.4-0.2C652.1,577.8,652.2,577.7,652.2,577.5z"/>
	<path d="M660,577.6c0,0.3-0.1,0.6-0.4,0.8c-0.2,0.2-0.5,0.3-0.8,0.3c-0.3,0-0.6-0.1-0.8-0.3c-0.2-0.2-0.3-0.5-0.3-0.8v-0.1
		c-0.7,0.3-1.3,0.7-1.7,1.2h-0.8v-5c-0.2,0.1-0.3,0.1-0.5,0.1c-0.3,0-0.6-0.1-0.8-0.4c-0.2-0.2-0.4-0.5-0.4-0.8
		c0-0.3,0.1-0.6,0.4-0.8c0.2-0.2,0.5-0.4,0.8-0.4c0.3,0,0.6,0.1,0.8,0.4s0.4,0.5,0.4,0.8v5.3c0.2-0.3,0.7-0.5,1.3-0.8
		c0.7-0.3,1.1-0.6,1.3-0.7c0.4-0.3,0.6-0.7,0.6-1.2v-3.6h0.6v3.7c0,0.6-0.1,1-0.4,1.3C659.7,576.7,660,577,660,577.6z M655.2,572.6
		c0-0.2-0.1-0.3-0.2-0.4c-0.1-0.1-0.3-0.2-0.4-0.2s-0.3,0.1-0.4,0.2c-0.1,0.1-0.2,0.3-0.2,0.4c0,0.2,0.1,0.3,0.2,0.4
		c0.1,0.1,0.3,0.2,0.4,0.2s0.3-0.1,0.4-0.2C655.1,572.9,655.2,572.8,655.2,572.6z M659.4,577.5c0-0.2-0.1-0.3-0.2-0.4
		c-0.1-0.1-0.3-0.2-0.4-0.2c-0.2,0-0.3,0.1-0.4,0.2c-0.1,0.1-0.2,0.3-0.2,0.4s0.1,0.3,0.2,0.4c0.1,0.1,0.3,0.2,0.4,0.2
		c0.2,0,0.3-0.1,0.4-0.2C659.3,577.8,659.4,577.7,659.4,577.5z"/>
	<path d="M664.6,577.5c0,0.3-0.1,0.6-0.4,0.9c-0.2,0.2-0.5,0.4-0.9,0.4c-0.4,0-0.7-0.1-0.9-0.4c-0.2-0.2-0.3-0.5-0.3-0.8V570
		c0-0.3-0.3-0.7-0.8-1c-0.5-0.3-1-0.5-1.5-0.5c0.1-1.1,0.6-1.7,1.7-1.7c0.2,0,0.5,0.1,0.9,0.3c0.4,0.2,0.7,0.3,0.9,0.3
		c0.2,0,0.3-0.1,0.4-0.4l0.5,0.1c-0.2,0.6-0.5,0.9-0.8,0.9c-0.2,0-0.5-0.1-1-0.3c-0.4-0.2-0.8-0.3-1-0.3c-0.5,0-0.8,0.2-0.8,0.7
		c1.4,0.4,2.1,1.1,2.1,2v6.4c0.2-0.1,0.4-0.1,0.6-0.1c0.3,0,0.6,0.1,0.9,0.4C664.5,576.9,664.6,577.2,664.6,577.5z M664,577.5
		c0-0.2-0.1-0.3-0.2-0.4c-0.1-0.1-0.3-0.2-0.4-0.2c-0.2,0-0.3,0.1-0.4,0.2c-0.1,0.1-0.2,0.3-0.2,0.4s0.1,0.3,0.2,0.4
		c0.1,0.1,0.3,0.2,0.4,0.2s0.3-0.1,0.4-0.2C663.9,577.8,664,577.7,664,577.5z"/>
	<path d="M670.7,578.6h-0.6v-3.1c0-0.4-0.2-0.8-0.7-1c-0.4-0.2-0.8-0.3-1.3-0.3c-0.5,0-0.9,0.1-1.2,0.4c-0.3,0.3-0.5,0.6-0.5,1
		l0,0.9c0.2-0.1,0.4-0.1,0.6-0.1c0.3,0,0.6,0.1,0.8,0.4c0.2,0.2,0.3,0.5,0.3,0.8c0,0.3-0.1,0.6-0.3,0.8c-0.2,0.2-0.5,0.4-0.8,0.4
		c-0.4,0-0.7-0.1-0.9-0.4c-0.2-0.2-0.3-0.5-0.3-0.8v-1.9c0-0.6,0.2-1.1,0.7-1.5c0.4-0.4,1-0.5,1.6-0.5c0.8,0,1.5,0.2,2,0.7v-0.9
		c0-0.4-0.2-0.8-0.7-1.1c-0.4-0.2-0.8-0.4-1.3-0.4c-0.5,0-1,0.1-1.4,0.3c-0.4,0.2-0.7,0.6-0.8,1h-0.6c0.1-0.6,0.4-1,1-1.4
		c0.5-0.3,1.1-0.5,1.8-0.5c0.7,0,1.3,0.2,1.8,0.5c0.6,0.4,0.9,0.9,0.9,1.6V578.6z M667.6,577.6c0-0.2-0.1-0.3-0.2-0.4
		s-0.3-0.2-0.4-0.2s-0.3,0.1-0.4,0.2c-0.1,0.1-0.2,0.3-0.2,0.4c0,0.2,0.1,0.3,0.2,0.4c0.1,0.1,0.3,0.2,0.4,0.2s0.3-0.1,0.4-0.2
		C667.5,577.9,667.6,577.7,667.6,577.6z"/>
	<path d="M677.5,577c0,1.2-0.8,1.7-2.4,1.7c-1.6,0-2.4-0.6-2.4-1.7v-0.9c0-0.3,0.1-0.5,0.2-0.8s0.4-0.4,0.6-0.5
		c-0.6-0.3-1-0.9-1-1.8c0-0.5,0.1-0.8,0.4-1.1c0.3-0.3,0.6-0.4,1.1-0.4c0.3,0,0.5,0.1,0.7,0.3c0.2,0.2,0.3,0.4,0.3,0.7
		s-0.1,0.5-0.3,0.7c-0.2,0.2-0.4,0.3-0.8,0.3c-0.4,0-0.8-0.2-0.9-0.6c0,0,0,0.1,0,0.3c0,0.3,0.1,0.6,0.3,0.9
		c0.2,0.3,0.5,0.4,0.8,0.4h1v0.6h-1c-0.3,0-0.5,0.1-0.7,0.3c-0.2,0.2-0.3,0.4-0.3,0.8v0.8c0,0.8,0.6,1.2,1.8,1.2
		c1.2,0,1.8-0.4,1.8-1.2v-5.4h0.6V577z M674.6,572.4c0-0.2-0.1-0.3-0.2-0.4c-0.1-0.1-0.2-0.2-0.4-0.2c-0.2,0-0.3,0.1-0.4,0.2
		c-0.1,0.1-0.2,0.2-0.2,0.4c0,0.4,0.2,0.6,0.6,0.6c0.2,0,0.3-0.1,0.4-0.2C674.5,572.7,674.6,572.6,674.6,572.4z"/>
	<path d="M677.6,570.4c-1.4-0.5-2.7-0.7-3.9-0.7c-0.4,0-0.9,0-1.4,0.1c0-0.6,0.3-1.1,0.8-1.5c0.5-0.3,1-0.5,1.6-0.5
		c1,0,1.7,0.3,2.2,0.9V567h0.6v3C677.5,570.1,677.6,570.2,677.6,570.4z M676.9,569.7c-0.5-1-1.3-1.5-2.2-1.5c-0.8,0-1.4,0.3-1.7,1
		c0.3,0,0.5-0.1,0.8-0.1C675,569.2,676,569.4,676.9,569.7z"/>
	<path d="M685.5,578.6h-0.8l-1.7-6.2l-1.7,6.2h-0.8v-5c-0.2,0.1-0.3,0.1-0.5,0.1c-0.3,0-0.6-0.1-0.8-0.4c-0.2-0.2-0.4-0.5-0.4-0.8
		c0-0.3,0.1-0.6,0.4-0.8s0.5-0.4,0.8-0.4s0.6,0.1,0.8,0.4c0.2,0.2,0.4,0.5,0.4,0.8v3.8c0,0.3,0,0.7-0.1,1.3c0.1-0.4,0.2-0.8,0.3-1.3
		l1.3-4.8h0.6l1.3,4.8c0.1,0.5,0.2,0.9,0.3,1.3c-0.1-0.5-0.1-1-0.1-1.3v-4.8h0.6V578.6z M680.6,572.6c0-0.2-0.1-0.3-0.2-0.4
		c-0.1-0.1-0.3-0.2-0.4-0.2c-0.2,0-0.3,0.1-0.4,0.2c-0.1,0.1-0.2,0.3-0.2,0.4c0,0.2,0.1,0.3,0.2,0.4c0.1,0.1,0.3,0.2,0.4,0.2
		c0.2,0,0.3-0.1,0.4-0.2C680.5,572.9,680.6,572.8,680.6,572.6z"/>
	<path d="M691.1,577.6c0,0.3-0.1,0.6-0.3,0.8s-0.5,0.4-0.9,0.4c-0.3,0-0.6-0.1-0.8-0.4c-0.2-0.2-0.4-0.5-0.4-0.8
		c0-0.3,0.1-0.6,0.4-0.8c0.2-0.2,0.5-0.4,0.8-0.4c0.2,0,0.4,0,0.5,0.1v-1.9c0-0.5-1.2-0.9-3.5-1.3c0.1-1.3,0.7-1.9,1.7-1.9
		c0.3,0,0.6,0.1,1.1,0.2c0.5,0.1,0.8,0.2,1,0.2c0.1,0,0.2-0.1,0.3-0.4l0.6,0.1c-0.2,0.6-0.5,0.9-0.9,0.9c-0.3,0-0.6-0.1-1.1-0.2
		c-0.5-0.1-0.8-0.2-1.1-0.2c-0.2,0-0.4,0.1-0.6,0.3c-0.2,0.2-0.3,0.4-0.3,0.6c0.8,0.1,1.5,0.3,2.3,0.6c0.7,0.3,1.1,0.6,1.1,1.1
		V577.6z M690.5,577.5c0-0.2-0.1-0.3-0.2-0.4s-0.3-0.2-0.4-0.2c-0.2,0-0.3,0.1-0.4,0.2s-0.2,0.3-0.2,0.4c0,0.2,0.1,0.3,0.2,0.4
		c0.1,0.1,0.3,0.2,0.4,0.2c0.2,0,0.3-0.1,0.4-0.2C690.5,577.9,690.5,577.7,690.5,577.5z"/>
	<path d="M697.8,571.7c0,0.8-0.3,1.5-0.7,2s-1.1,0.8-1.8,0.8c-0.6,0-1.1-0.1-1.5-0.3c-0.5-0.3-0.8-0.7-0.8-1.2
		c0-0.3,0.1-0.6,0.3-0.8c0.2-0.2,0.5-0.3,0.8-0.3c0.3,0,0.6,0.1,0.8,0.3c0.2,0.2,0.3,0.5,0.3,0.8c0,0.4-0.2,0.7-0.5,1
		c0.2,0,0.3,0.1,0.5,0.1c0.6,0,1.1-0.2,1.5-0.6c0.3-0.4,0.5-0.9,0.5-1.6H697.8z M697.8,575.5c0,0.8-0.3,1.5-0.7,2s-1.1,0.8-1.8,0.8
		c-0.6,0-1.1-0.1-1.5-0.3c-0.5-0.3-0.8-0.7-0.8-1.2c0-0.3,0.1-0.6,0.3-0.8c0.2-0.2,0.5-0.3,0.8-0.3c0.3,0,0.6,0.1,0.8,0.3
		c0.2,0.2,0.3,0.5,0.3,0.8c0,0.4-0.2,0.7-0.5,1c0.2,0,0.3,0.1,0.5,0.1c0.6,0,1.1-0.2,1.5-0.6c0.3-0.4,0.5-0.9,0.5-1.6H697.8z
		 M694.6,572.9c0-0.2-0.1-0.3-0.2-0.4c-0.1-0.1-0.2-0.2-0.4-0.2s-0.3,0.1-0.4,0.2c-0.1,0.1-0.2,0.2-0.2,0.4s0.1,0.3,0.2,0.4
		c0.1,0.1,0.2,0.2,0.4,0.2s0.3-0.1,0.4-0.2C694.5,573.2,694.6,573.1,694.6,572.9z M694.6,576.7c0-0.2-0.1-0.3-0.2-0.4
		c-0.1-0.1-0.2-0.2-0.4-0.2s-0.3,0.1-0.4,0.2s-0.2,0.2-0.2,0.4s0.1,0.3,0.2,0.4c0.1,0.1,0.2,0.2,0.4,0.2s0.3-0.1,0.4-0.2
		C694.5,577,694.6,576.9,694.6,576.7z"/>
	<path d="M704.3,577.4c0,0.9-0.4,1.3-1.3,1.3c-0.7,0-1.1-0.3-1.2-1l-0.3-2c-0.2,0.1-0.4,0.2-0.6,0.2c-0.3,0-0.6-0.1-0.8-0.3
		s-0.3-0.5-0.3-0.8c0-0.3,0.1-0.6,0.3-0.8s0.5-0.3,0.8-0.3c0.3,0,0.5,0.1,0.7,0.3c0.2,0.2,0.3,0.4,0.4,0.7l0.5,3.1
		c0,0.3,0.2,0.4,0.5,0.4c0.4,0,0.6-0.2,0.6-0.6v-4.2c0-0.5-0.2-0.8-0.6-1c-0.4-0.2-0.8-0.3-1.3-0.3c-0.5,0-1,0.1-1.3,0.3
		c-0.4,0.2-0.6,0.5-0.7,0.9h-0.7c0.1-0.5,0.3-0.9,0.7-1.3c0.5-0.4,1.1-0.6,1.9-0.6c1.7,0,2.5,0.6,2.5,1.9V577.4z M701.6,574.8
		c0-0.2-0.1-0.3-0.2-0.4c-0.1-0.1-0.2-0.2-0.4-0.2c-0.2,0-0.3,0.1-0.4,0.2c-0.1,0.1-0.2,0.2-0.2,0.4c0,0.2,0.1,0.3,0.2,0.4
		c0.1,0.1,0.2,0.2,0.4,0.2c0.2,0,0.3-0.1,0.4-0.2C701.5,575.1,701.6,575,701.6,574.8z"/>
	<path d="M711.3,577.1c0,1.1-0.8,1.7-2.4,1.7s-2.4-0.6-2.4-1.7v-2.2c0-0.3,0.1-0.6,0.4-0.8c0.2-0.2,0.5-0.4,0.8-0.4s0.6,0.1,0.8,0.4
		c0.2,0.2,0.4,0.5,0.4,0.8c0,0.3-0.1,0.6-0.3,0.8c-0.2,0.2-0.5,0.4-0.9,0.4c-0.2,0-0.4,0-0.5-0.1v1c0,0.8,0.6,1.2,1.8,1.2
		c1.2,0,1.7-0.4,1.7-1.2v-3.3c0-0.5-0.2-0.9-0.6-1.2c-0.4-0.3-0.9-0.4-1.4-0.4c-0.5,0-0.9,0.1-1.3,0.3c-0.4,0.3-0.7,0.6-0.8,1h-0.6
		c0.1-0.6,0.4-1,0.9-1.4c0.5-0.3,1.1-0.5,1.9-0.5c0.7,0,1.3,0.2,1.8,0.5c0.6,0.4,0.9,0.9,0.9,1.6V577.1z M708.3,574.8
		c0-0.2-0.1-0.3-0.2-0.4s-0.3-0.2-0.4-0.2s-0.3,0.1-0.4,0.2s-0.2,0.3-0.2,0.4s0.1,0.3,0.2,0.4s0.3,0.2,0.4,0.2s0.3-0.1,0.4-0.2
		S708.3,575,708.3,574.8z"/>
	<path d="M718.5,578.6h-0.7c-0.9-0.7-1.8-1.2-2.6-1.4c0,0.1,0.1,0.2,0.1,0.3c0,0.3-0.1,0.6-0.4,0.9c-0.2,0.2-0.5,0.4-0.9,0.4
		c-0.3,0-0.6-0.1-0.9-0.4c-0.2-0.2-0.4-0.5-0.4-0.9s0.1-0.6,0.4-0.9c0.2-0.2,0.5-0.4,0.9-0.4c0.1,0,0.3,0,0.4,0.1v-2.6
		c-0.2,0.1-0.3,0.1-0.5,0.1c-0.3,0-0.6-0.1-0.8-0.4c-0.2-0.2-0.4-0.5-0.4-0.8c0-0.3,0.1-0.6,0.4-0.8s0.5-0.4,0.8-0.4
		s0.6,0.1,0.8,0.4c0.2,0.2,0.4,0.5,0.4,0.8v3.9c1.2,0.4,2.1,0.9,2.9,1.5v-6.4h0.6V578.6z M714.4,572.6c0-0.2-0.1-0.3-0.2-0.4
		c-0.1-0.1-0.3-0.2-0.4-0.2c-0.2,0-0.3,0.1-0.4,0.2c-0.1,0.1-0.2,0.3-0.2,0.4c0,0.2,0.1,0.3,0.2,0.4c0.1,0.1,0.3,0.2,0.4,0.2
		c0.2,0,0.3-0.1,0.4-0.2C714.4,572.9,714.4,572.8,714.4,572.6z M714.6,577.5c0-0.2-0.1-0.3-0.2-0.5c-0.1-0.1-0.3-0.2-0.5-0.2
		s-0.3,0.1-0.5,0.2c-0.1,0.1-0.2,0.3-0.2,0.5c0,0.2,0.1,0.3,0.2,0.5c0.1,0.1,0.3,0.2,0.5,0.2s0.3-0.1,0.5-0.2
		C714.6,577.8,714.6,577.7,714.6,577.5z"/>
	<path d="M722.9,577.5c0,0.3-0.1,0.6-0.4,0.9c-0.2,0.2-0.5,0.4-0.9,0.4c-0.4,0-0.7-0.1-0.9-0.4c-0.2-0.2-0.3-0.5-0.3-0.8v-6.1h0.6v5
		c0.2-0.1,0.4-0.1,0.6-0.1c0.3,0,0.6,0.1,0.9,0.4C722.8,576.9,722.9,577.1,722.9,577.5z M722.3,577.5c0-0.2-0.1-0.3-0.2-0.4
		c-0.1-0.1-0.3-0.2-0.4-0.2s-0.3,0.1-0.4,0.2c-0.1,0.1-0.2,0.3-0.2,0.4s0.1,0.3,0.2,0.4c0.1,0.1,0.3,0.2,0.4,0.2s0.3-0.1,0.4-0.2
		C722.3,577.8,722.3,577.7,722.3,577.5z"/>
	<path d="M729.1,578.6h-0.6v-4.7c0-0.6-0.2-1.1-0.5-1.4s-0.8-0.5-1.4-0.5c-0.4,0-0.8,0.1-1.2,0.3c-0.4,0.2-0.6,0.5-0.8,0.9
		c0.7,0.1,1.2,0.3,1.5,0.8c-0.3,0.1-0.5,0.2-0.8,0.5s-0.3,0.5-0.3,0.9v3.3h-0.6v-3.3c0-0.7,0.3-1.2,0.9-1.4
		c-0.4-0.2-0.9-0.3-1.4-0.2c0.1-0.7,0.4-1.2,0.9-1.7c0.5-0.4,1.1-0.6,1.8-0.6c0.8,0,1.4,0.2,1.9,0.6c0.5,0.4,0.7,1,0.7,1.8V578.6z"
		/>
	<path d="M736,578.6h-0.6v-3.1c0-0.4-0.2-0.8-0.7-1c-0.4-0.2-0.8-0.3-1.3-0.3c-0.5,0-0.9,0.1-1.2,0.4c-0.3,0.3-0.5,0.6-0.5,1l0,0.9
		c0.2-0.1,0.4-0.1,0.6-0.1c0.3,0,0.6,0.1,0.8,0.4c0.2,0.2,0.3,0.5,0.3,0.8c0,0.3-0.1,0.6-0.3,0.8c-0.2,0.2-0.5,0.4-0.8,0.4
		c-0.4,0-0.7-0.1-0.9-0.4c-0.2-0.2-0.3-0.5-0.3-0.8v-1.9c0-0.6,0.2-1.1,0.7-1.5c0.4-0.4,1-0.5,1.6-0.5c0.8,0,1.5,0.2,2,0.7v-0.9
		c0-0.4-0.2-0.8-0.7-1.1c-0.4-0.2-0.8-0.4-1.3-0.4c-0.5,0-1,0.1-1.4,0.3c-0.4,0.2-0.7,0.6-0.8,1h-0.6c0.1-0.6,0.4-1,1-1.4
		c0.5-0.3,1.1-0.5,1.8-0.5c0.7,0,1.3,0.2,1.8,0.5c0.6,0.4,0.9,0.9,0.9,1.6V578.6z M732.8,577.6c0-0.2-0.1-0.3-0.2-0.4
		s-0.3-0.2-0.4-0.2c-0.2,0-0.3,0.1-0.4,0.2s-0.2,0.3-0.2,0.4c0,0.2,0.1,0.3,0.2,0.4c0.1,0.1,0.3,0.2,0.4,0.2c0.2,0,0.3-0.1,0.4-0.2
		C732.8,577.9,732.8,577.7,732.8,577.6z"/>
	<path d="M737.3,567c-0.2,1.1-0.7,1.9-1.5,2.4c-0.7,0.4-1.5,0.6-2.7,0.6h-0.4v-0.4c0.5-0.2,0.8-0.5,1-0.8c-0.7-0.1-1-0.4-1-1
		c0-0.3,0.1-0.5,0.3-0.7c0.2-0.2,0.4-0.3,0.7-0.3c0.3,0,0.5,0.1,0.7,0.3c0.2,0.2,0.3,0.4,0.3,0.7c0,0.7-0.3,1.2-0.8,1.6
		c1.6-0.1,2.5-0.9,2.7-2.5H737.3z M734.2,567.8c0-0.1,0-0.2-0.1-0.3c-0.1-0.1-0.2-0.1-0.3-0.1s-0.2,0-0.3,0.1
		c-0.1,0.1-0.1,0.2-0.1,0.3c0,0.1,0,0.2,0.1,0.3c0.1,0.1,0.2,0.1,0.3,0.1s0.2,0,0.3-0.1C734.2,568.1,734.2,568,734.2,567.8z"/>
	<path d="M741.7,578.6H741v-5.4c0-0.4-0.1-0.7-0.4-0.9c-0.3-0.2-0.6-0.4-1.1-0.4c-0.4,0-0.8,0.1-1,0.4c-0.3,0.3-0.4,0.6-0.4,0.9
		h-0.7c0-0.5,0.2-1,0.6-1.3c0.4-0.4,0.9-0.6,1.5-0.6c0.7,0,1.2,0.2,1.6,0.5s0.5,0.8,0.5,1.3V578.6z"/>
	<path d="M747.7,577.2c0,1-0.7,1.5-2,1.5s-2-0.5-2-1.5v-2.8h0.6v2.8c0,0.6,0.4,0.9,1.3,0.9s1.3-0.3,1.3-0.9v-2.7
		c0-0.3-0.6-0.6-1.7-0.9c-0.7-0.2-1.5-0.3-2.2-0.4c0-0.5,0.2-1,0.6-1.4c0.4-0.4,0.8-0.5,1.4-0.5c0.3,0,0.6,0.1,1.1,0.2
		c0.4,0.1,0.8,0.2,1,0.2c0.3,0,0.5-0.1,0.5-0.4l0.6,0.1c-0.2,0.6-0.5,0.9-1,0.9c-0.3,0-0.6-0.1-1.1-0.2c-0.5-0.1-0.8-0.2-1.1-0.2
		c-0.3,0-0.5,0.1-0.7,0.2c-0.2,0.2-0.4,0.4-0.4,0.6c1.3,0.3,2.1,0.5,2.4,0.6c0.9,0.3,1.4,0.7,1.4,1.2V577.2z"/>
	<path d="M755.6,577.6c0,0.3-0.1,0.6-0.4,0.8c-0.2,0.2-0.5,0.3-0.8,0.3c-0.3,0-0.6-0.1-0.8-0.3c-0.2-0.2-0.3-0.5-0.3-0.8v-0.1
		c-0.7,0.3-1.3,0.7-1.7,1.2h-0.8v-5c-0.2,0.1-0.3,0.1-0.5,0.1c-0.3,0-0.6-0.1-0.8-0.4c-0.2-0.2-0.4-0.5-0.4-0.8
		c0-0.3,0.1-0.6,0.4-0.8c0.2-0.2,0.5-0.4,0.8-0.4c0.3,0,0.6,0.1,0.8,0.4s0.4,0.5,0.4,0.8v5.3c0.2-0.3,0.7-0.5,1.3-0.8
		c0.7-0.3,1.1-0.6,1.3-0.7c0.4-0.3,0.6-0.7,0.6-1.2v-3.6h0.6v3.7c0,0.6-0.1,1-0.4,1.3C755.4,576.7,755.6,577,755.6,577.6z
		 M750.8,572.6c0-0.2-0.1-0.3-0.2-0.4c-0.1-0.1-0.3-0.2-0.4-0.2c-0.2,0-0.3,0.1-0.4,0.2c-0.1,0.1-0.2,0.3-0.2,0.4
		c0,0.2,0.1,0.3,0.2,0.4c0.1,0.1,0.3,0.2,0.4,0.2c0.2,0,0.3-0.1,0.4-0.2C750.7,572.9,750.8,572.8,750.8,572.6z M755,577.5
		c0-0.2-0.1-0.3-0.2-0.4c-0.1-0.1-0.3-0.2-0.4-0.2s-0.3,0.1-0.4,0.2c-0.1,0.1-0.2,0.3-0.2,0.4s0.1,0.3,0.2,0.4s0.3,0.2,0.4,0.2
		s0.3-0.1,0.4-0.2C755,577.8,755,577.7,755,577.5z"/>
	<path d="M763,577.1c0,1.1-0.8,1.7-2.3,1.7c-1.6,0-2.3-0.6-2.3-1.7v-3.4c-0.2,0.1-0.3,0.1-0.5,0.1c-0.3,0-0.6-0.1-0.8-0.4
		c-0.2-0.2-0.4-0.5-0.4-0.8c0-0.3,0.1-0.6,0.4-0.8c0.2-0.2,0.5-0.4,0.8-0.4s0.6,0.1,0.8,0.4s0.4,0.5,0.4,0.8v4.4
		c0,0.8,0.6,1.1,1.7,1.1c1.1,0,1.7-0.4,1.7-1.1v-5.5h0.6V577.1z M758.4,572.6c0-0.2-0.1-0.3-0.2-0.4c-0.1-0.1-0.3-0.2-0.4-0.2
		c-0.2,0-0.3,0.1-0.4,0.2c-0.1,0.1-0.2,0.3-0.2,0.4c0,0.2,0.1,0.3,0.2,0.4c0.1,0.1,0.3,0.2,0.4,0.2c0.2,0,0.3-0.1,0.4-0.2
		C758.3,572.9,758.4,572.8,758.4,572.6z"/>
	<path d="M763,582.8h-0.6v-1.5c-0.1,0-0.2,0.1-0.3,0.1c-0.3,0-0.5-0.1-0.7-0.3c-0.2-0.2-0.3-0.4-0.3-0.7s0.1-0.5,0.3-0.7
		c0.2-0.2,0.4-0.3,0.7-0.3s0.5,0.1,0.7,0.3c0.2,0.2,0.3,0.4,0.3,0.7V582.8z M762.5,580.4c0-0.1,0-0.2-0.1-0.3
		c-0.1-0.1-0.2-0.1-0.3-0.1s-0.2,0-0.3,0.1c-0.1,0.1-0.1,0.2-0.1,0.3c0,0.1,0,0.2,0.1,0.3c0.1,0.1,0.2,0.1,0.3,0.1s0.2,0,0.3-0.1
		C762.4,580.6,762.5,580.5,762.5,580.4z"/>
	<path d="M768.5,577.6c0,0.3-0.1,0.6-0.3,0.8s-0.5,0.4-0.9,0.4c-0.3,0-0.6-0.1-0.8-0.4c-0.2-0.2-0.4-0.5-0.4-0.8
		c0-0.3,0.1-0.6,0.4-0.8c0.2-0.2,0.5-0.4,0.8-0.4c0.2,0,0.4,0,0.5,0.1v-1.9c0-0.5-1.2-0.9-3.5-1.3c0.1-1.3,0.7-1.9,1.7-1.9
		c0.3,0,0.6,0.1,1.1,0.2c0.5,0.1,0.8,0.2,1,0.2c0.1,0,0.2-0.1,0.3-0.4l0.6,0.1c-0.2,0.6-0.5,0.9-0.9,0.9c-0.3,0-0.6-0.1-1.1-0.2
		c-0.5-0.1-0.8-0.2-1.1-0.2c-0.2,0-0.4,0.1-0.6,0.3c-0.2,0.2-0.3,0.4-0.3,0.6c0.8,0.1,1.5,0.3,2.3,0.6c0.7,0.3,1.1,0.6,1.1,1.1
		V577.6z M768,577.5c0-0.2-0.1-0.3-0.2-0.4s-0.3-0.2-0.4-0.2c-0.2,0-0.3,0.1-0.4,0.2s-0.2,0.3-0.2,0.4c0,0.2,0.1,0.3,0.2,0.4
		c0.1,0.1,0.3,0.2,0.4,0.2c0.2,0,0.3-0.1,0.4-0.2C767.9,577.9,768,577.7,768,577.5z"/>
	<path d="M768.9,570.4c-1.4-0.5-2.7-0.7-3.9-0.7c-0.4,0-0.9,0-1.4,0.1c0-0.6,0.3-1.1,0.8-1.5c0.5-0.3,1-0.5,1.6-0.5
		c1,0,1.7,0.3,2.2,0.9V567h0.6v3C768.8,570.1,768.8,570.2,768.9,570.4z M768.2,569.7c-0.5-1-1.3-1.5-2.2-1.5c-0.8,0-1.4,0.3-1.7,1
		c0.3,0,0.5-0.1,0.8-0.1C766.3,569.2,767.3,569.4,768.2,569.7z"/>
</g>
</svg>
