<svg  xmlns:xlink="http://www.w3.org/1999/xlink" xmlns="http://www.w3.org/2000/svg" class="utouch-icon utouch-icon-arrow-top" width="512"  height="512" ><defs><symbol id="utouch-icon-arrow-top" viewBox="0 0 512 512">
        <path d="m256 364c16 0 27 12 27 27l0 93c0 15-12 27-27 27-15 0-27-13-27-27l0-93c-1-15 11-27 27-27z m0-296c16 0 27 12 27 27l0 168c0 16-12 27-27 27-15 0-27-12-27-27l0-168c-1-15 11-27 27-27z m-22-60c-2 1-3 3-4 6l-121 119c-12 11-12 30 0 41 11 12 31 12 43 0l103-102 104 102c12 12 32 12 43 0 7-6 9-13 9-20 0-8-3-16-9-21l-121-119c-1-3-2-4-4-6-5-5-14-8-21-8-8 0-17 3-22 8z m0 0c-2 1-3 3-4 6l-121 119c-12 11-12 30 0 41 11 12 31 12 43 0l103-102 104 102c12 12 32 12 43 0 7-6 9-13 9-20 0-8-3-16-9-21l-121-119c-1-3-2-4-4-6-5-5-14-8-21-8-8 0-17 3-22 8z"></path>
    </symbol></defs>
                            <use xlink:href="#utouch-icon-arrow-top" fill="#FFFFFF"></use>
                        </svg>